<svg version="1.2" xmlns="http://www.w3.org/2000/svg" viewBox="70 0 109.99999999999997 144" width="110" height="144">
	<style>
		.s0 { fill: #000000;stroke: #ffffff;stroke-miterlimit:100 } 
		.s1 { fill: #000000 } 
		.s2 { fill: #000000;stroke: #000000;stroke-linejoin: bevel } 
		.s3 { fill: #ffffff;stroke: #000000;stroke-linejoin: bevel } 
		.s4 { fill: #ffffff;stroke: #000000;stroke-linejoin: bevel;stroke-width: .4 } 
		.s5 { fill: #000000;stroke: #000000;stroke-linecap: square;stroke-miterlimit:8 } 
	</style>
	<g id="layer1">
	</g>
	<g id="Layer 1">
		<path id="path2832 copy" class="s0" d="m116.39 142.43c0.18-1.06 2.18-1.17 2.59-0.14 0.25 0.62-0.25 1.01-1.1 0.85-0.87-0.15-1.54-0.46-1.49-0.71zm-10.67-4.03c0.15-0.85 0.67-1.21 1.17-0.77 0.49 0.44 0.82 1.22 0.73 1.73-0.09 0.53-0.62 0.87-1.17 0.78-0.54-0.1-0.87-0.88-0.73-1.74zm6.9 1.89c0.17-0.98 2.82-1.72 4.71-1.33 0.64 0.12 0.18 0.74-1.04 1.36-2.5 1.3-3.89 1.27-3.67-0.03zm14.39 0.46c0.07-0.46 2.07-1.35 4.43-1.96 2.35-0.6 5.19-1.8 6.3-2.67q3.65-2.86 3.11 0.16c-0.13 0.83-0.84 1.4-1.55 1.28-0.7-0.12-3.52 0.79-6.26 2.01-5.24 2.36-6.28 2.56-6.03 1.18zm5.03 0.72c0.1-0.56 0.88-0.89 1.74-0.73 0.86 0.15 1.21 0.67 0.77 1.16-0.44 0.5-1.22 0.83-1.74 0.73-0.51-0.09-0.87-0.61-0.77-1.16zm7.57 1.41c-0.22-0.54 0.32-1.13 1.19-1.31 0.98-0.18 1.5 0.27 1.34 1.16-0.28 1.62-1.9 1.71-2.53 0.15zm-31.86-6.43c-0.2-0.49 1.15-0.44 3.01 0.11 1.85 0.55 3.34 1.18 3.3 1.39-0.13 0.75-5.97-0.64-6.31-1.5zm14.98 1.83c1.2-0.64 2.61-1.08 3.12-0.99 1.26 0.22 11.8-4.33 11.94-5.17 0.06-0.36 1.33-0.99 2.82-1.38 1.49-0.39 2.67-0.5 2.62-0.23-0.15 0.86-5.3 4.74-6.11 4.61-0.44-0.09-3.13 0.83-5.99 2.02-2.87 1.2-5.53 1.89-5.92 1.55-0.39-0.35-1.06-0.22-1.51 0.28-0.44 0.5-1.34 0.81-1.98 0.67-0.66-0.12-0.21-0.74 1.01-1.36zm-3.44-2.46c-0.18-0.93-1.52-1.53-3.71-1.67-2.52-0.18-2.86-0.37-1.3-0.74 2.01-0.48 2.01-0.54-0.01-1.46q-2.12-0.97-2.34 0.44c-0.34 1.96-5.13 0.56-5.43-1.58-0.25-1.85-9.24-9.15-9.49-7.71-0.09 0.48 1.46 2.09 3.45 3.57 3.61 2.71 5.36 5.1 3.48 4.77-0.54-0.1-1.19-0.67-1.43-1.28-0.26-0.61-1.25-1.24-2.21-1.41-0.96-0.18-2.5-1.25-3.4-2.41-0.9-1.14-3.11-3.64-4.91-5.54-1.81-1.9-3.2-3.94-3.1-4.51 0.11-0.59 1.57 0.64 3.26 2.74 1.68 2.09 3.4 3.56 3.81 3.27 0.43-0.29-0.04-1.32-1-2.26-2.5-2.44-4.72-5.64-5.47-7.88-1.12-3.29 1.22-1.84 3.11 1.93 0.96 1.93 3.58 5.01 5.81 6.87 2.24 1.84 4.6 3.92 5.24 4.63 0.65 0.69 1.77 1.46 2.49 1.69 0.72 0.25 3.08 1 5.24 1.7 3.88 1.24 7.62 3.69 8.57 5.62 0.69 1.41 3.09 0.24 2.51-1.22-0.29-0.72-0.07-0.83 0.55-0.28 0.74 0.64 0.64 1.41-0.34 2.68-1.61 2.05-2.98 2.06-3.38 0.04zm6.67-1.07c1.24-1.06 1.26-1.35 0.09-1.54-0.78-0.15-1.86-0.88-2.4-1.64-0.74-1.06-0.19-1.69 2.36-2.69 3.81-1.5 4.33-1.52 4.1-0.16-0.09 0.54-1.34 1.07-2.78 1.18-1.45 0.11-2.69 0.6-2.77 1.09-0.3 1.7 2.26 1.29 5.52-0.9 1.8-1.21 3.19-1.71 3.08-1.1-0.1 0.61-1.58 1.82-3.3 2.68-1.71 0.88-2.65 1.68-2.07 1.79 0.56 0.12 2.82-0.9 5.03-2.25 2.21-1.37 3.42-2.31 2.72-2.1-1.61 0.48-2.54-1.56-0.99-2.18 1.82-0.73 5.01-5.41 6.34-9.29 0.91-2.69 0.88-3.44-0.16-3.02-1.04 0.43-1.05-0.37-0.04-3.26 0.72-2.08 1.5-4.81 1.72-6.05 0.22-1.23 0.89-2.17 1.48-2.06 0.61 0.09 0.64 0.98 0.08 2.07-0.61 1.18-0.52 1.97 0.23 2.11 1.49 0.25 2.47-10.64 1.13-12.56-0.49-0.68-0.72-2.2-0.52-3.37 0.38-2.19-1.51-12.12-3.96-20.8-1.79-6.34-6.75-13.53-10.2-14.79-6.92-2.53-15.16 0.91-19.9 8.33-3 4.67-4.89 16.75-3.25 20.76 0.26 0.66 0.48 1.72 0.45 2.38-0.01 0.65 1.15 3.49 2.56 6.31 2.22 4.4 3 5.14 5.65 5.28 1.69 0.07 3.57 0.21 4.18 0.27 1.11 0.12 4.15-3.7 4.5-5.65 0.09-0.58-1.42 0.15-3.36 1.61-3.46 2.62-6.09 2.46-4.47-0.25 0.45-0.77 0.26-1.48-0.46-1.6-0.71-0.12-1.98-1.11-2.83-2.19-0.91-1.17-1.63-1.52-1.74-0.83-0.11 0.63 0.59 1.86 1.58 2.74 0.99 0.88 1.73 1.97 1.65 2.42-0.08 0.46-0.98-0.01-1.99-1.02-2.19-2.18-4.02-7.37-2.99-8.53 1.12-1.28 2.4 0.42 1.48 1.97q-0.84 1.39 0.73 1.08c0.85-0.18 2.01 0.5 2.57 1.46 1.46 2.56 7.58 3.46 7.92 1.17 0.15-0.98 1.05-3.78 2.03-6.24 2.48-6.33 0.55-16.2-3.32-16.96-0.45-0.08-0.61 0.36-0.36 0.97 0.24 0.61-0.03 1.02-0.61 0.92-0.58-0.1-1.65 1.57-2.38 3.72-0.74 2.15-1.75 3.83-2.27 3.74-0.52-0.1-0.61-0.53-0.19-1 0.4-0.46 0.31-1.2-0.2-1.66-0.5-0.45-0.5-1.29 0.03-1.86 1.44-1.61 1.86-3.49 0.84-3.66-0.5-0.08-1.07 0.75-1.26 1.84-0.19 1.11-0.84 1.93-1.42 1.82-1.3-0.22 0.92-6.35 2.39-6.64 0.52-0.1 0.8-0.54 0.62-0.98-0.17-0.45 0.91-1.9 2.41-3.23 3.18-2.83 7.84-2.92 10.74-0.23 3.11 2.9 4.57 2.52 2.49-0.63-1.55-2.36-2.56-2.89-5.61-2.95-4.75-0.1-8.37 1.46-11.09 4.76-1.2 1.44-2.56 2.56-3.04 2.48-0.49-0.08-0.27-0.66 0.47-1.3 0.74-0.63 1.15-1.42 0.92-1.75-0.57-0.82 8.57-6.56 10.18-6.39 0.69 0.08 2.38 0.21 3.74 0.3 2.29 0.14 3.76 1.56 9.22 8.98 1.39 1.86 3.73 9.36 4.66 14.92 0.3 1.7 0.15 1.78-0.96 0.48-0.72-0.85-1.19-2.21-1.05-3.04 0.34-1.93-3.76-13.3-4.85-13.5-1.77-0.3-2.31 2.53-0.64 3.28 1.79 0.82 4.32 8.78 5.04 15.82 0.14 1.3 0.66 2.43 1.15 2.53 0.5 0.08 0.77-0.58 0.6-1.45-0.19-0.89 0.13-1.53 0.68-1.44 0.91 0.16 1.61 3.63 1.51 7.5-0.03 0.85 0.08 2.91 0.24 4.58 0.2 2.18-0.01 2.79-0.74 2.13-0.56-0.5-1-2.74-0.98-4.98 0.04-2.26-0.26-4.38-0.67-4.73-1.28-1.14-1.26 3.84 0 7.57 1.52 4.37 0.97 8.26-1.4 9.93-0.97 0.68-1.91 2.07-2.08 3.08-0.23 1.36-0.83 1.61-2.23 0.98-1.38-0.64-2-0.38-2.22 0.86-0.26 1.52-0.05 1.6 1.6 0.66 1.64-0.94 1.8-0.89 1.13 0.33-0.44 0.77-1.56 1.21-2.51 0.95-0.95-0.25-2.66 0.67-3.82 2.07-2.43 2.94-7.33 3.86-12.94 2.42-8.41-2.16-17.35-15.35-17.05-25.15 0.07-2.2 0.19-2.29 0.84-0.62 0.42 1.07 0.41 2.34-0.03 2.83-0.42 0.5-0.42 0.96 0.03 1.03 0.45 0.08 1.67 2.59 2.73 5.56 2.96 8.38 7.46 12.76 14.82 14.51 5.84 1.37 6.23 1.31 10.1-1.5 2.22-1.61 4.2-3.83 4.38-4.93 0.27-1.52-0.62-1.11-3.71 1.77-3.36 3.13-4.71 3.71-7.97 3.41-2.17-0.19-4.93-0.79-6.16-1.34-2.84-1.25-7.88-7.47-10.67-13.15-2.67-5.43-2.5-7.82 0.23-3.27 1.1 1.85 1.94 3.69 1.88 4.08-0.24 1.35 5.28 9.16 6.07 8.6 0.44-0.3 0.71-0.06 0.6 0.56-0.28 1.64 6.29 3.85 8.17 2.77 0.87-0.49 2.32-0.45 3.25 0.1q1.7 1.03 1.16-0.3c-0.63-1.53-4.04-2.31-4.75-1.08-0.67 1.17-7.5-2.69-9.15-5.16-1.23-1.84-1.16-1.85 0.96-0.2 3.61 2.79 7.62 3.62 10.07 2.07 1.4-0.89 2.12-0.95 1.99-0.18-0.11 0.67 0.29 1.02 0.9 0.76 0.61-0.24 1.19-0.89 1.28-1.44 0.1-0.56-0.32-0.8-0.93-0.56-1.19 0.48-1.26-1.01-0.08-1.84 1.55-1.09 2.89 2.31 1.58 4-2.25 2.9-0.61 2.94 1.85 0.05 1.3-1.52 2.93-2.67 3.64-2.55 0.7 0.12 1.36-0.23 1.46-0.78 0.1-0.55 0.66-0.91 1.24-0.81 0.62 0.11 0.66 1 0.09 2.08-0.54 1.04-0.54 1.97 0.01 2.06 1.32 0.23 3.61-5.18 4.07-9.62 0.49-4.7 0.14-6.44-1.23-5.9-0.66 0.27-0.88-0.89-0.52-2.86 0.73-4.17-1.11-15.4-3.12-19.03l-1.52-2.74 1 3.78c0.55 2.08 1.26 4.55 1.56 5.47 0.66 1.95 0.81 5.89 0.47 12.57-0.21 4.03-0.54 4.76-2.18 4.91-1.97 0.16-2.54 1.3-3.59 7.13-0.31 1.79-1.03 3.17-1.58 3.08-0.55-0.09-0.59-0.64-0.09-1.2q0.89-1.03-0.49-0.48c-1.06 0.43-1.09 0.03-0.12-1.67 1.59-2.79 3.66-16.82 2.7-18.2-0.42-0.57-0.76 0.28-0.81 1.98-0.03 1.64-0.52 3.18-1.08 3.4-0.56 0.23-0.82-0.8-0.56-2.29 0.25-1.49 0.42-4.45 0.39-6.6-0.08-4.42 0.81-4.99 1.59-1.01 0.28 1.48 1.21 2.79 2.05 2.94 1.16 0.2 1.33 1.45 0.67 5.22-0.47 2.73-0.44 5.32 0.07 5.77 0.86 0.76 1.64-5.26 1.44-11.21-0.08-2.89-2.01-9.04-4.14-13.27-1.43-2.84-1.49-3.45-0.25-2.71 0.99 0.59 1.42 0.51 1.14-0.19-0.68-1.69-8.09-4-10.28-3.22-1.47 0.52-1.18 0.77 1.41 1.14 3.79 0.55 7.27 5 9.47 12.08 1.48 4.82 1.54 5.54 0.41 5.34-0.41-0.07-1.13-1.63-1.6-3.47-0.62-2.5-1.11-3.04-1.92-2.15-0.89 0.99-1.07 0.93-0.98-0.31 0.08-0.85 0.26-1.89 0.42-2.32 0.16-0.44-0.44-2.3-1.32-4.13-1.29-2.7-2.25-3.4-5-3.7-1.87-0.19-3.23 0.08-3.02 0.59 0.21 0.51-0.28 1.5-1.08 2.19-1.86 1.58-1.25 1.67 2.63 0.44 2.78-0.88 3.22-0.78 4.34 1.01 2.23 3.54 2.97 8.34 2.26 14.81-0.48 4.54-1.03 6.28-1.9 6.13-0.92-0.15-1 0.11-0.26 1.15 0.73 1.04 1.35 1.13 2.58 0.43 1.33-0.76 1.64-0.48 1.68 1.48 0.03 1.34-0.45 3.25-1.06 4.23-0.95 1.59-1.05 1.5-0.77-0.72 0.32-2.48 0.3-2.47-1.59 0.25-1.05 1.52-2.42 3.26-3.04 3.89-1.28 1.29-10.75 1.11-10.55-0.2 0.24-1.6-4.44-8.32-5.38-7.73-0.51 0.33-0.57 0.16-0.13-0.37 0.43-0.54 0.33-2.42-0.24-4.17-1.35-4.2-1.45-6.17-0.62-13.43 1.29-11.32 9.28-20.14 18.9-20.88 3.62-0.28 4.98 0.11 8.43 2.4 2.26 1.51 4.38 2.54 4.71 2.31 0.32-0.23 0.42-0.57 0.21-0.74-4.29-3.72-6.88-5.07-11.05-5.79-4.39-0.76-5.6-0.48-10.32 2.43-3.66 2.24-5.28 2.79-5.1 1.71 0.15-0.86 3.04-2.8 6.42-4.29 5.79-2.54 6.49-2.61 12.07-1.11 4.78 1.28 6.16 1.31 7.09 0.15 1.07-1.3 1.41-1.23 3.58 0.79 1.31 1.23 2.67 2.04 3.02 1.79 0.9-0.63 5.91 3.33 5.72 4.51-0.25 1.41-1.98 0.89-2.21-0.65-0.15-0.98-0.7-0.98-2.07-0.02-1.7 1.21-1.55 1.8 1.67 6.72 2.74 4.22 3.78 7.35 4.68 14.2 0.63 4.84 1.07 9.34 0.95 9.99-0.11 0.66 0.17 1.26 0.63 1.35 1.16 0.19 1.66-3.06 0.73-4.78-0.42-0.78-0.51-1.38-0.18-1.33 0.32 0.06 0.06-2.07-0.57-4.74-1.09-4.56-0.89-5.28 1.18-4.52 0.82 0.3 0.84-1.04 0.09-5.59-0.35-2.09-0.33-2.09 0.9 0.1 1.41 2.51 1.18 5.51-0.47 6.17-0.7 0.28-0.76 1.51-0.18 3.39 1.27 4.01 1.84 11.03 1.27 15.35-0.27 1.97-0.07 3.64 0.43 3.72 1.06 0.18 1.64-9.13 0.82-13.19-0.3-1.52-0.58-3.47-0.62-4.32-0.03-0.86-0.24-2.4-0.46-3.44-0.22-1.09 0.07-1.79 0.69-1.68 0.59 0.09 0.97-0.65 0.83-1.67-0.53-4.02 2.49 2.84 4.56 10.32 2.9 10.5 1.4 10.97-1.68 0.54-2.78-9.39-3.71-10.24-1.48-1.36 0.79 3.14 1.43 5.94 1.44 6.22 0 0.28 0.14 1.24 0.28 2.11 0.14 0.88 0.45 3.25 0.69 5.29 0.33 2.79 0.46 2.99 0.56 0.84 0.06-1.56 0.51-3 1-3.19 1.32-0.54 1.5 10.74 0.26 18.41-0.58 3.73-0.73 6.84-0.32 6.92 0.41 0.07 0.68 0.58 0.58 1.15-0.1 0.56-1.28 0.63-2.61 0.14-1.96-0.72-2.5-0.49-2.79 1.2-0.19 1.15-1.78 3.41-3.5 5-1.73 1.61-2.78 2.98-2.34 3.04 1.4 0.22 3.18-0.92 4.21-2.68 0.56-0.97 1.42-1.31 2.01-0.8 0.95 0.84-8.86 8.22-14.99 11.27-2.2 1.09-2.2 1.07-0.15-0.64 2.66-2.22 2.84-3.16 0.55-2.69-1.95 0.38-1.16-0.96 2.17-3.72 1-0.83 1.57-1.85 1.27-2.29-0.31-0.43-1.42-0.04-2.45 0.88-2.11 1.85-1.92 1.4 1.67-3.87 3.07-4.5 4.05-6.66 4.94-10.81 0.38-1.78 1.09-3.17 1.58-3.08 1.29 0.22-1.65 9.39-4 12.5-1.82 2.4-1.87 2.84-0.61 4.67 1.32 1.89 1.29 2.07-0.57 3.01-2.43 1.23-2.7 2.21-0.7 2.55 0.83 0.15 1.61-0.38 1.74-1.16 0.14-0.78 0.86-1.58 1.6-1.79 1.09-0.29 1.12-0.54 0.22-1.17-0.82-0.56-0.27-1.61 1.94-3.66 1.96-1.81 2.99-3.58 2.8-4.85-0.24-1.64-0.14-1.69 0.54-0.3 0.71 1.46 0.86 1.45 1.13-0.06 0.17-0.97-0.13-1.83-0.68-1.93-0.55-0.1-0.93-0.58-0.84-1.08 0.08-0.5 0.93-0.65 1.86-0.35 0.94 0.32 1.16 0.28 0.49-0.08-1.71-0.94 1.12-14.55 2.98-14.24 0.7 0.12 1.42-0.49 1.57-1.35 0.14-0.88-0.32-1.5-1.05-1.38-0.74 0.12-1.65-1.27-2.04-3.11-0.69-3.24-0.72-3.2-0.96 1.28-0.24 4.48-0.28 4.53-1.33 1.84-1.05-2.68-1.09-2.59-1.57 2.31-0.69 7.15-0.57 7.62 1.05 3.8 0.88-2.08 0.53 0.61-0.89 7.07-1.94 8.74-2.71 10.71-4.68 12.1l-2.37 1.66 1.69-2.81c2.8-4.71 5.18-13.17 3.91-13.92-0.61-0.37-0.83-2.79-0.49-5.42 0.35-2.6 0.6-5.44 0.55-6.31-0.05-0.85-0.17-3.08-0.27-4.95-0.11-1.86-0.57-3.45-1.02-3.53-0.45-0.08-0.59 1.26-0.31 2.97 0.28 1.72 0.15 4.36-0.31 5.89-0.61 2.03-0.96 0.74-1.3-4.9-0.24-4.23-0.13-8.03 0.26-8.48 0.39-0.44 0.23-0.88-0.35-0.99-0.58-0.1-0.8-1.73-0.47-3.63 0.33-1.91 0.25-3.77-0.19-4.16-0.44-0.39-0.89-1.98-1.01-3.54-0.27-3.65-7.13-16.18-10.17-18.55-3.35-2.62-4.23-1.35-0.97 1.42 1.48 1.26 2.41 2.64 2.06 3.04-0.36 0.41 0.06 0.86 0.91 1 0.86 0.15 1.51 0.61 1.45 1.03-0.07 0.41 1.06 2.59 2.51 4.84 1.45 2.25 2.71 4.79 2.78 5.64 0.07 0.85 0.41 4.41 0.77 7.91 0.34 3.49 0.38 6.83 0.06 7.4-0.31 0.58-0.14 1.43 0.38 1.89 0.52 0.46 0.86 1.31 0.76 1.9-0.12 0.67-0.67 0.51-1.47-0.44-0.71-0.83-1.17-2.22-1.02-3.08 0.15-0.86-0.35-3.79-1.1-6.51-0.76-2.73-1.6-5.93-1.89-7.11-0.49-2.02-0.45-2.02 0.44-0.1 2.68 5.81 2.8 5.95 2.52 3.19-0.16-1.44-0.67-3.62-1.16-4.84-0.73-1.83-1.09-2-2.07-0.98-1.41 1.51-1.02 4.65 1.74 14.07 0.31 1.03 0.42 2.67 0.26 3.62-0.17 0.95 0.67 2.84 1.85 4.2 1.54 1.76 2.11 3.89 1.98 7.35-0.12 3.01-0.59 4.81-1.21 4.71-0.55-0.1-0.86-0.98-0.69-1.94 0.92-5.22 0.82-7.35-0.38-9.07-0.75-1.05-1.66-1.68-2.05-1.41-0.39 0.28-0.16 1 0.52 1.61 1.69 1.47-0.37 15.06-2.17 14.37-0.65-0.26-1.27-0.02-1.37 0.53-0.1 0.55 0.28 1.09 0.83 1.17 0.54 0.1 0.84 1.12 0.63 2.28-0.49 2.86-5.27 12.61-6.85 14.01-0.71 0.62-0.84 1.06-0.3 0.97 0.96-0.14 1.35 0.67 1.07 2.28-0.17 0.99-8.83 5.22-11.73 5.74-1.7 0.32-1.78 0.17-0.47-0.94zm18.45 6.82c0.24-1.35 2.17-1.89 2.63-0.73 0.22 0.56-0.31 1.15-1.19 1.33-0.88 0.17-1.52-0.1-1.44-0.6zm-40.41-6.69c-0.91-0.43-1.6-1.15-1.52-1.6 0.07-0.46 1-0.45 2.06 0.02 1.05 0.49 1.84 1.28 1.76 1.77-0.09 0.49-0.26 0.81-0.38 0.72-0.14-0.08-0.99-0.5-1.92-0.91zm12.34 1.8c0.1-0.55 0.63-0.91 1.18-0.83 0.55 0.1 0.93 0.64 0.83 1.18-0.1 0.55-0.62 0.93-1.18 0.83-0.55-0.09-0.92-0.62-0.83-1.18zm-17.22-5.11c-0.27-0.65-1.19-1.04-2.04-0.89-0.84 0.17-1.22-0.06-0.82-0.51 0.41-0.45-0.17-1.28-1.27-1.85-1.92-1-5.26-4.96-5.06-6.02 0.09-0.62 3.68 2.25 5.14 4.15 0.6 0.76 2.33 2.22 3.88 3.25 1.53 1.02 2.73 2.2 2.67 2.62-0.21 1.13-1.95 0.61-2.5-0.75zm11.05-1.15c-2.11-1.91-3.36-1.72-1.5 0.2 0.94 0.98 1.95 1.59 2.26 1.37 0.3-0.21-0.04-0.93-0.76-1.57zm51.1-15.66c0.01-0.98 0.44-2.26 0.96-2.84 0.51-0.57 0.7-2.24 0.42-3.69-0.28-1.46-0.2-2.87 0.19-3.16 0.39-0.26 0.18-0.58-0.46-0.69-1.44-0.26-2.2 3.38-0.93 4.49 0.5 0.45 0.57 1.19 0.16 1.65-0.42 0.47-1.18 0.48-1.71 0.02-0.57-0.52-0.79-0.25-0.56 0.65 0.22 0.83 0.54 2.34 0.71 3.37 0.17 1.02 0.51 1.9 0.77 1.94 0.24 0.04 0.45-0.74 0.45-1.74zm-62.63-50.91c3.24-8.26 14.34-18.68 20.94-19.66 4.48-0.67 4.29-1.55-0.3-1.42-1.83 0.04-5.02 1.36-7.1 2.91-3.82 2.86-5.47 3.36-5.15 1.55 0.1-0.55 0.85-0.88 1.67-0.75 0.83 0.15 1.58-0.18 1.68-0.73 0.48-2.73-4.47-0.29-6.2 3.06-0.55 1.04-1.65 1.77-2.47 1.63-1.95-0.34-0.19-2.53 4.96-6.24 3.14-2.24 3.5-2.79 1.86-2.76-2.15 0.03-10.06 7.47-13.68 12.83-1.14 1.71-2.28 2.83-2.52 2.5-0.23-0.33 0.46-1.77 1.55-3.21 1.07-1.42 2.14-3.02 2.36-3.55 0.22-0.53 1.69-2.05 3.27-3.38 1.58-1.34 2.97-3 3.09-3.69 0.13-0.7 1.33-1.59 2.67-1.99 1.34-0.39 4.2-1.41 6.34-2.28 3.51-1.41 3.61-1.4 1.04 0.06-4.89 2.77-2.33 2.71 5.16-0.13 3.94-1.5 6.5-2.84 5.68-2.99-1.32-0.24-1.31-0.37 0.18-0.99 1.39-0.59 1.34-0.79-0.32-1.15-1.63-0.37-1.45-0.59 1-1.2 1.66-0.41 2.72-1.14 2.39-1.62-0.34-0.49 0.09-0.45 0.98 0.09 0.99 0.58 1.7 0.47 1.83-0.3 0.16-0.92 1.84-0.83 6.39 0.37 4.75 1.24 5.69 1.29 4.1 0.18-2.54-1.77-2.5-2.83 0.08-2.38 1.06 0.19 1.6 0.72 1.18 1.19-0.41 0.46-0.28 0.64 0.28 0.42 2.16-0.86 7.55 2.14 7.97 4.44 0.41 2.17 0.27 2.21-2.43 0.71-2.2-1.22-3.12-1.33-3.89-0.47-0.68 0.78-1.87 0.75-3.73-0.14-2.63-1.23-8.35-2.05-13.63-1.95-0.81 0.01-0.94 2.09-0.21 3.87 0.3 0.72-0.08 1.45-0.82 1.64-0.75 0.19 0.24 0.53 2.19 0.76 2.33 0.27 3.38 0.82 3.07 1.59-0.27 0.68 0.62 1.36 2.11 1.62 1.45 0.26 2.38-0.04 2.12-0.66-0.24-0.61 0.18-1 0.96-0.86 2.09 0.35 12.16 6.03 13.51 7.61 0.68 0.8 1.23 0.96 1.33 0.38 0.16-0.89-3.85-4.14-9.96-8.08-1.98-1.28-1.74-1.3 1.56-0.17 2.12 0.72 4.38 2.04 4.98 2.9 0.63 0.88 1.59 1.67 2.16 1.77 0.57 0.1 2.95 2.42 5.28 5.17 2.32 2.75 4.49 4.8 4.81 4.57 0.77-0.54-7.24-10.27-8.64-10.52-0.58-0.1-1.48-0.81-2.02-1.56-1.41-2.01-7.61-5.24-11.29-5.9-1.77-0.31-3.4-1.06-3.64-1.67-1.09-2.69 12.97 3.39 17.7 7.67 5.02 4.52 14.6 17.47 14.28 19.3-0.18 1.1-0.72 0.75-1.83-1.2-0.86-1.51-1.94-3.39-2.39-4.16-0.45-0.77-1.57-1.24-2.48-1.06-1.04 0.21-2.76-1.16-4.54-3.61-1.57-2.16-2.95-3.46-3.04-2.9-0.1 0.57 0.96 2.48 2.36 4.24 1.4 1.76 2.46 3.67 2.37 4.26-0.11 0.62 0.73 0.94 1.99 0.76 1.69-0.23 2.94 0.82 5.34 4.4 1.72 2.59 3.45 4.48 3.84 4.21 0.38-0.27 0.31-1.17-0.17-1.99-0.47-0.83-0.55-2.04-0.17-2.7 0.42-0.73 1.01-0.03 1.5 1.76 0.45 1.65 1.12 3.04 1.5 3.1 0.37 0.07 1.77 2.4 3.12 5.19 1.35 2.79 2.15 5.02 1.77 4.95-0.81-0.13-3.39-4.18-5-7.82-0.61-1.38-1.56-2.32-2.12-2.1-0.55 0.22-0.22 1.95 0.74 3.84 3.51 6.9 3.82 7.7 2.88 7.54-0.53-0.08-2-2.31-3.28-4.96-2.58-5.31-5.23-9.39-8.41-13.05l-2.11-2.43 1.95 3.17c1.07 1.73 1.6 3.42 1.16 3.72-0.43 0.3-2.66-2.4-4.92-6.02-6.33-10.06-11.9-14.86-13.71-11.82-0.52 0.87-0.36 1.49 0.38 1.53 0.71 0.03 1.98 0.23 2.83 0.44 2.1 0.54 8.84 8.78 8.31 10.18-0.23 0.62-0.24 2.25-0.02 3.64 0.67 4.33-2.28 4.41-4.82 0.14-2.32-3.9-2.1-5.56 0.36-2.73 1.31 1.5 1.44 1.46 1.09-0.3-0.28-1.5-0.02-1.78 1.04-1.14 2.51 1.48 1.66-0.51-1.94-4.59-3.64-4.11-5.17-5-5.47-3.2-0.11 0.6-1.04 0.21-2.13-0.88-1.08-1.07-4.17-2.63-6.87-3.47-3.54-1.11-4.32-1.64-2.8-1.89 1.15-0.2 3.37 0.25 4.93 1 2.08 1.01 3.3 1.05 4.59 0.13 1.05-0.74 1.31-1.31 0.62-1.44-0.63-0.11-1.4 0.3-1.72 0.89-0.43 0.81-1.06 0.7-2.52-0.44-1.07-0.84-3.56-1.79-5.52-2.13-1.96-0.34-3.5-1.07-3.4-1.62 0.1-0.56-0.27-1.08-0.79-1.17-0.54-0.1-0.83 0.67-0.64 1.69 0.32 1.76 0.23 1.75-1.31-0.18-1.15-1.4-2.17-1.83-3.31-1.35-1.23 0.51-1.3 0.74-0.31 0.93 0.72 0.13 1.84 0.97 2.46 1.86 0.99 1.39 0.69 1.65-1.93 1.71-3.15 0.08-9.59 2.69-11.33 4.59-0.55 0.59-1.65 1.57-2.45 2.2-1.62 1.25-4.68 4.81-4.83 5.61-0.05 0.29 0.37 0.59 0.91 0.69 0.56 0.09 1.11-0.39 1.22-1.09 0.41-2.29 10.31-9.22 14.54-10.16 5.43-1.21 18.36 1.56 14.52 3.09-0.74 0.31-2.62-0.07-4.17-0.81-6.9-3.34-16.89 0.09-22.75 7.82-1.36 1.78-2.49 2.32-3.72 1.74-1.28-0.57-2.18-0.09-3.21 1.71-0.78 1.39-2.01 3.34-2.73 4.35-1.02 1.45-1.06 1.23-0.17-1.06zm-18.32-11.46c0.31-1.77 3.95-6.63 6.36-8.45 0.82-0.63 1.6-1.76 1.74-2.52 0.12-0.76 1.09-1.68 2.14-2.06 1.06-0.36 1.68-1.01 1.39-1.42-0.76-1.06-6.23 3.01-6 4.47 0.1 0.67-0.53 1.1-1.4 0.95-0.88-0.16-1.67 0.17-1.77 0.72-0.09 0.56-0.67 0.92-1.29 0.82-1.68-0.29 4.82-6.16 12.56-11.34 6.85-4.58 8-5.76 6.01-6.1-0.59-0.1-0.83 0.39-0.55 1.09 0.3 0.75 0.13 0.94-0.41 0.47-0.51-0.45-4.03 1.61-7.83 4.58-4.38 3.41-7.4 5.11-8.27 4.59-1.12-0.67-1.03-0.91 0.49-1.45 1-0.35 5.17-3.02 9.25-5.93 5.3-3.78 7.67-4.93 8.32-4.01 0.63 0.9 1.43 0.88 2.81-0.1 2.17-1.52 2.85-1.61 2.63-0.33-0.15 0.92-6.85 5.62-11.76 8.28-1.56 0.85-2.58 1.91-2.25 2.37 0.73 1.04 12.03-5.75 12.38-7.44 0.15-0.69 1.32-1.06 2.61-0.84 2.92 0.51 9.37-1.34 8.9-2.55-0.33-0.82 5.23-1.71 10.99-1.76 1.37-0.01 2.8-0.28 3.21-0.59 0.4-0.31-0.81-0.54-2.68-0.52-2.38 0.05-3.16-0.24-2.55-0.92 1.58-1.79 20.83 4.43 30.24 9.77 1.55 0.89 4.93 3.57 7.52 5.99 4.33 4.02 6.65 5.01 5.59 2.39-1.02-2.56-16.59-12.55-24.46-15.7-4.67-1.88-7.13-3.21-5.46-2.96 1.66 0.24 5.84 1.63 9.28 3.08 3.43 1.45 6.8 2.79 7.48 2.99 0.67 0.19 1.16 0.73 1.08 1.19-0.08 0.46 0.42 0.94 1.11 1.06 0.69 0.12 2.45 1.13 3.92 2.26 1.46 1.12 3.1 1.71 3.64 1.34 0.54-0.38-0.68-1.81-2.73-3.16-2.04-1.35-3.64-2.82-3.57-3.25 0.07-0.43 2.2 0.69 4.74 2.48 2.52 1.79 4.51 3.73 4.41 4.29-0.09 0.56-0.55 0.7-1.01 0.28-0.45-0.4-1.19-0.33-1.63 0.17-0.45 0.5-0.4 0.99 0.1 1.08 1.26 0.22 4.61 4.44 4.42 5.58-0.1 0.51-0.79 1.38-1.56 1.91-1.06 0.76-2.01 0.33-4.07-1.81-5.66-5.9-17.38-12.62-26.21-15.01-2.52-0.68-5-1.61-5.49-2.05-0.5-0.44-0.99-0.31-1.09 0.27-0.11 0.59-0.86 0.94-1.69 0.79-0.83-0.13-1.59 0.2-1.67 0.75-0.21 1.17-0.04 1.2 5.65 1.09 3.49-0.07 4.16 0.16 3.54 1.22-0.43 0.71-1.5 1.1-2.39 0.86-5.15-1.4-9.18-1.42-9.42 0-0.33 1.93-1.75 1.68-3.04-0.58-0.73-1.26-1.38-1.51-2.29-0.86-0.91 0.64-0.91 1.22 0.01 2.03 0.99 0.88 0.57 1.2-1.78 1.34-6.86 0.44-25.13 10.26-27.96 15.01-2 3.39-1.85 4.85 0.23 2.33 2.27-2.75 2.32-1.75 0.08 1.55-1.19 1.73-1.8 1.98-2.24 0.95-0.48-1.14-0.86-1.16-1.81-0.11-0.66 0.72-1.46 0.93-1.78 0.48-0.32-0.45 0.11-1.41 0.95-2.13 0.84-0.72 1.26-1.35 0.93-1.41-0.35-0.06 0.34-0.95 1.5-2 3.46-3.07 15.72-11.8 15.6-11.11-0.06 0.36 0.53 0.26 1.33-0.2 3.47-2.03 10.03-4.49 11.36-4.26 1.45 0.26 2.49-1.62 1.06-1.89-2.2-0.42-15.26 4.71-20.13 7.89-5.76 3.79-14.71 12.88-15.15 15.41-0.13 0.79-0.74 1.63-1.35 1.87-0.61 0.25-0.98-0.3-0.82-1.22zm37.59 78.26c-0.25-0.61 0.48-0.95 1.61-0.76 1.13 0.2 1.99 0.81 1.89 1.37-0.08 0.54-0.82 0.89-1.61 0.74-0.79-0.13-1.64-0.74-1.89-1.35zm31.64 4.98c0.85-0.72 2.16-1.2 2.92-1.07 0.75 0.13 1.34-0.18 1.28-0.7-0.1-0.97 4.93-4.42 6.15-4.21 1.23 0.22-7.79 6.54-9.86 6.92-1.72 0.31-1.79 0.17-0.49-0.94zm-36.34-7.93c-0.66-1.66-0.34-1.73 5.68-1.25 5.77 0.47 6.59 0.93 2.81 1.63-4.99 0.92-8.02 0.79-8.49-0.38zm-6.06-2.05c-1.15-0.71-2.06-1.54-2-1.83 0.18-1.1 3.78 0.16 5.41 1.9 1.98 2.11 0.06 2.07-3.41-0.07zm0.84-3.38c-1.54-0.97-4.07-3.3-5.63-5.16-1.72-2.04-2.88-2.82-2.9-1.96-0.03 0.8-0.25 2.28-0.49 3.31-0.38 1.56-0.66 1.61-1.78 0.3-0.99-1.17-0.99-1.69 0.01-2.09 0.93-0.38 0.63-1.47-1.02-3.62-1.3-1.71-2.04-3.04-1.65-2.97 0.41 0.07-0.03-1.29-0.96-3.01-1.42-2.63-3.51-9.47-3.29-10.76 0.04-0.21 0.51-0.3 1.06-0.21 0.54 0.09 1.07 1.38 1.18 2.86 0.11 1.48 1.38 5.3 2.83 8.49 3.26 7.18 3.05 6.86 3.91 6.25 0.39-0.26-0.36-2.9-1.68-5.82-3.03-6.77-4.79-14.63-3.2-14.35 0.45 0.08 1.96 5.73 2.17 8.12 0.04 0.57 0.73 2.39 1.52 4.03 0.79 1.65 1.39 3.3 1.32 3.66-0.22 1.27 2.36 4.18 3.35 3.79 0.55-0.22 1.97 0.7 3.17 2.02 2.37 2.64 4.27 3.41 4.55 1.82 0.2-1.12 3.69-0.21 4.67 1.22 0.36 0.51-0.24 0.62-1.31 0.24-1.06-0.36-2.03-0.23-2.11 0.32-0.18 1.05 0.14 1.21 4.75 2.3 2.6 0.61 2.71 0.77 0.83 1.22-1.8 0.44-1.63 0.62 1.09 1.15 1.79 0.35 3.16 1.12 3.05 1.72-0.21 1.28-6.35-0.93-6.64-2.39-0.1-0.51-1.16-1.1-2.35-1.29-1.6-0.27-1.85-0.08-0.96 0.73 2.08 1.89-0.58 1.96-3.49 0.08zm-6.51-1.19c-1.07-1.87 0.05-2.02 1.98-0.28 0.73 0.67 0.78 1.28 0.11 1.55-0.61 0.24-1.55-0.33-2.09-1.27zm8.77 0.01c0.64-0.73-1-2.18-7.16-6.26-0.51-0.35-0.05 0.74 1.02 2.41 1.08 1.67 2.34 2.88 2.82 2.68 0.49-0.19 1.07 0.16 1.33 0.78 0.56 1.4 1.01 1.49 1.99 0.39zm18.29 3.51c2.01-1.07 3.78-2.63 3.91-3.46q0.27-1.5 2.01-0.59c1.37 0.71 2.13 0.21 3.38-2.19 1.33-2.52 1.56-2.67 1.32-0.77-0.16 1.28-1.14 3.44-2.16 4.79-2.3 3.04-6.84 6.05-6.53 4.34 0.12-0.73-0.36-0.99-1.19-0.66-3.46 1.42-4.02 0.31-0.74-1.46zm-5.91-0.36c0.1-0.55-0.4-1.11-1.11-1.24-1.54-0.25-1.08-4.24 0.46-4.2 0.59 0.01 1.53 0.04 2.1 0.06 2.32 0.06 6.06-2.21 6.34-3.85 0.35-2.04 1.66-2.01 4.31 0.06 1.37 1.06 1.73 1.13 1.38 0.23-0.52-1.32 2.62-7.75 4.46-9.14q1.09-0.79 0.26 0.72c-0.48 0.85-1.89 4.24-3.16 7.53-1.27 3.32-2.52 5.4-2.82 4.67-0.4-1-0.74-1.06-1.45-0.27-0.51 0.59-1.47 0.73-2.14 0.34-0.66-0.4-2.37 0.04-3.78 0.97-1.94 1.26-2.72 1.34-3.13 0.3-0.4-0.99-0.82-1.1-1.44-0.39-0.49 0.55-0.5 1.06-0.02 1.13 0.46 0.09 0.75 1.06 0.64 2.19-0.11 1.12-0.39 1.99-0.63 1.95-0.25-0.04-0.37-0.53-0.27-1.06zm17.72 2.47c-0.12-1.6 0.33-3.23 1.03-3.72 0.68-0.49 1.45-2.02 1.69-3.43 0.26-1.41 1.01-3.15 1.69-3.89 2.13-2.29 0.47 4.35-1.82 7.35-1.63 2.12-1.81 2.87-0.89 3.68 0.83 0.74 0.79 1.25-0.17 1.92-0.98 0.69-1.38 0.17-1.53-1.91zm-6.23-3.07c1.69-1.62 1.67-1.67-0.17-0.68-1.09 0.59-2.07 1.54-2.17 2.12-0.11 0.58-0.02 0.89 0.17 0.68 0.2-0.21 1.17-1.16 2.17-2.12zm-0.33-8.03c-0.26-0.67-0.87-0.63-1.54 0.11-1.75 1.92-1.59 3.04 0.28 1.97 0.94-0.54 1.51-1.47 1.26-2.08zm-9.05 8.36c0.13-0.75 5.04-3.59 6-3.46 0.39 0.04 0.37 0.67-0.04 1.36-0.77 1.28-6.14 3.17-5.96 2.1zm-7.94-4.88c-0.24-0.61 0.02-1.02 0.56-0.94 0.55 0.1 1.21 0.69 1.45 1.3 0.25 0.6-0.01 1.02-0.56 0.93-0.54-0.09-1.2-0.68-1.45-1.29zm27.56 4.89c0.1-0.55 0.67-1.19 1.28-1.45 0.61-0.24 1.04 0.01 0.94 0.56-0.1 0.55-0.67 1.21-1.28 1.45-0.62 0.24-1.04 0-0.94-0.56zm-51.34-11.48c-6.37-12.68-7.74-16.41-5.86-16.09 0.5 0.08 1.41 1.99 2.02 4.23 0.6 2.23 1.31 4.33 1.56 4.65 1.47 1.84 4.78 9.3 4.29 9.65-0.31 0.21-1.21-0.88-2.01-2.44zm-6.52-0.26c0.15-0.86 0.67-1.2 1.16-0.77 0.5 0.44 0.83 1.22 0.73 1.73-0.08 0.53-0.61 0.87-1.16 0.77-0.56-0.08-0.89-0.86-0.73-1.73zm75.24 13.17c0.15-1.06 0.49-1.61 0.76-1.22 0.28 0.39 0.17 1.25-0.24 1.92-0.47 0.76-0.66 0.48-0.52-0.7zm-54.85-11.63c-0.53-0.94-1.42-1.53-1.96-1.32-0.55 0.22-0.86-0.3-0.72-1.16 0.36-2.06 0.53-1.97 3.45 1.56 1.35 1.66 1.96 2.93 1.34 2.82-0.62-0.11-1.57-0.96-2.11-1.9zm51.94 10.13c0.04-0.21 0.85-0.83 1.8-1.38 1.47-0.84 1.6-0.76 0.85 0.54-0.8 1.3-2.84 1.96-2.65 0.84zm-12.26-4.57c2.13-4.45 3.98-12.19 2.8-11.72-0.68 0.27-1.47 1.85-1.75 3.5-0.3 1.66-0.84 2.72-1.25 2.38-1.22-1.09 1.22-7.67 2.75-7.4 0.76 0.13 1.54-0.66 1.74-1.77 0.18-1.1 0.72-1.94 1.17-1.86 0.8 0.14-0.83 8.64-2.4 12.49-0.44 1.06-1 2.94-1.26 4.18-0.25 1.23-0.95 2.16-1.53 2.05-0.59-0.1-0.71-0.93-0.27-1.85zm-62.04-11.56c-0.19-0.9-0.06-1.83 0.25-2.06 0.32-0.22 0.67 0.55 0.77 1.73 0.21 2.5-0.55 2.74-1.02 0.33zm3.35 0.46c-0.31-0.43-0.48-1.25-0.38-1.82 0.11-0.63 0.57-0.49 1.16 0.35 0.55 0.77 0.72 1.58 0.38 1.83-0.33 0.23-0.86 0.07-1.16-0.36zm11.21-4.81c-1.09-2.57-1.87-5.41-1.72-6.31 0.16-0.91 0.03-2.02-0.29-2.47-0.32-0.45-0.56-1.56-0.53-2.46 0.07-2.58 1.08-0.16 2.63 6.3 0.79 3.26 2.17 6.87 3.07 8.02 1.15 1.47 1.22 2.01 0.24 1.84-0.76-0.13-2.3-2.34-3.4-4.92zm-13.47-1.09c-0.24-0.6 0.04-1.02 0.63-0.92 0.58 0.1 0.98 0.63 0.89 1.18-0.1 0.55-0.38 0.98-0.63 0.93-0.24-0.04-0.64-0.58-0.89-1.19zm78.79 13.18c0.31-1.77 0.95-1.93 1.58-0.38 0.21 0.56-0.1 1.23-0.72 1.49-0.63 0.24-1-0.26-0.86-1.11zm-81.41-15.63c-0.23-0.57 0.09-1.24 0.71-1.48 0.62-0.26 1.01 0.24 0.85 1.11-0.3 1.75-0.95 1.91-1.56 0.37zm30.78 4.01c-5.33-3.18-7.29-5.79-9.8-13.06-0.82-2.37-1.86-3.87-2.33-3.34-1.41 1.61-2.48 0.79-2.53-1.93-0.03-1.42 0.34-2.52 0.81-2.44 0.48 0.09 0.76 0.83 0.61 1.65-0.14 0.83 0.19 1.58 0.75 1.68 1.26 0.22 1.64-1.92 0.96-5.45-0.29-1.5-1.23-2.85-2.08-2.99-1.19-0.21-1.27-0.89-0.39-2.92 0.63-1.45 1.56-2.73 2.06-2.83 1.46-0.3 1.34-2.01-0.18-2.26-1.45-0.26-3.09 2.5-3.77 6.31-0.22 1.24-0.86 2.18-1.41 2.09-0.54-0.1-0.7-0.94-0.35-1.87 3.05-8.12 3.43-8.71 5.07-7.97 0.96 0.44 1.77 0.21 1.92-0.56 0.39-2.13 6.54-11.08 7.5-10.91 1.34 0.23 0.77 1.8-1.02 2.83-1.46 0.84-4.68 7.66-4 8.47 0.16 0.19-0.45 0.66-1.38 1.03-0.95 0.41-1.15 0.8-0.5 0.92 0.69 0.12 0.89 1.6 0.5 3.46-2.67 12.76 3.1 26.29 12.71 29.81 2.12 0.8 3.92 1.15 3.99 0.82 0.34-1.45 5.87-5.44 6.24-4.51 0.24 0.57-0.91 2.05-2.54 3.29-1.62 1.25-2.6 2.33-2.17 2.42 0.44 0.08 0.03 0.46-0.88 0.86-2.11 0.89-1.72 1.02-7.79-2.6zm-11.73-29.88c-0.15-0.75-0.48-0.22-0.71 1.16-0.25 1.39-0.11 1.98 0.28 1.34 0.4-0.64 0.59-1.77 0.43-2.5zm-19.63 20.17c-0.68-3.53-0.36-5.83 0.8-5.62 0.93 0.16 1.17 7.51 0.28 8.14-0.29 0.2-0.78-0.94-1.08-2.52zm49.69 9.31c-0.63-1.8 1.99-8.19 3.27-7.97 0.96 0.17 0.99 0.94 0.07 2.85-0.69 1.44-1.17 3.17-1.06 3.85 0.23 1.41-1.83 2.55-2.28 1.27zm34.02 5.35c-0.27-2-0.41-9.41-0.22-11.14 0.28-2.52-1.49-12.84-3.14-18.32-0.86-2.82-3.18-7.77-5.18-10.99-2-3.23-3.53-6.41-3.38-7.08 0.13-0.67 1.85 1.39 3.83 4.57 1.97 3.18 3.69 5.25 3.81 4.59 0.12-0.66-0.17-1.55-0.67-1.98-0.48-0.44-0.8-1.27-0.7-1.86 0.11-0.68 0.65-0.51 1.47 0.44 0.71 0.83 1.17 2.16 1.04 2.95-0.14 0.79 0.17 1.27 0.68 1.06 0.51-0.2 1.62 1.59 2.47 3.99 0.86 2.39 1.89 4.41 2.32 4.48 0.41 0.08 1.17 1.36 1.66 2.84 0.5 1.49 1.4 2.5 2.01 2.26 0.61-0.26 0.77-0.06 0.34 0.43-0.43 0.47-0.35 2.18 0.16 3.79 0.51 1.6 0.49 2.85-0.05 2.76-0.54-0.09-1.12-1.01-1.29-2.03-0.44-2.54-8.71-18.43-9.34-17.98-0.29 0.19 0.13 1.79 0.94 3.53 0.8 1.75 2.01 4.56 2.67 6.26 0.67 1.69 1.61 2.92 2.11 2.73 0.48-0.21 1.13 1.63 1.42 4.08 0.3 2.45 0.99 4.86 1.55 5.38 0.72 0.67 0.65 0.87-0.27 0.73-1.18-0.19-1.89-2.11-2.57-7.04-0.16-1.09-0.54-1.81-0.84-1.59-0.3 0.2-0.26 4.12 0.11 8.68 0.37 4.55 0.52 10 0.35 12.1-0.31 3.77-0.95 4.94-1.29 2.36zm-80.04-14.31c-0.3-0.41-0.37-1.69-0.16-2.84 0.32-1.71 0.51-1.79 1.11-0.4 0.6 1.38 0.91 1.28 1.79-0.6l1.06-2.26 0.9 2.61c1.11 3.16 1.04 4.18-0.28 3.94-0.55-0.09-0.88-0.87-0.73-1.73 0.15-0.86-0.23-1.36-0.85-1.11-0.62 0.25-0.97 0.88-0.75 1.41 0.47 1.17-1.35 2.03-2.09 0.98zm50.52 5.24c-0.27-0.67 0.09-1.6 0.77-2.08 0.88-0.62 1.08-0.26 0.7 1.24-0.59 2.42-0.79 2.53-1.47 0.84zm-43.61-7.71c-0.18-1.45-0.22-4.88-0.09-6.73 0.1-1.25-0.05-2.33-0.31-2.38-0.28-0.04-0.02-3.71 0.57-8.16 0.6-4.44 1.45-8.01 1.89-7.93 0.45 0.08 0.35 3.28-0.2 7.11-0.89 6.14-0.86 12.38 0.09 17.2 0.17 0.84-0.2 1.45-0.81 1.34-0.61-0.1-1.12-0.3-1.14-0.45zm-4.15-6.4c-0.06-1 0.47-3.35 1.16-5.22 0.71-1.89 1.16-2.43 1.03-1.24-0.13 1.18-0.2 3.61-0.15 5.4 0.09 3.38-1.85 4.39-2.04 1.06zm7.5 0.52c-0.39-1.48-0.32-2.63 0.16-2.56 0.83 0.15 1.62 4.53 0.9 5.03-0.19 0.14-0.67-0.97-1.06-2.47zm-13.53-2.17c-0.62-3.03-0.18-4.44 0.9-2.91 0.49 0.71 0.59 2.1 0.21 3.09-0.67 1.73-0.71 1.73-1.11-0.18zm3.18 1.93c-0.06-0.29-0.05-2.38 0.03-4.64 0.11-3.11 0.37-3.78 1.12-2.78 0.53 0.73 0.52 2.83-0.03 4.64-0.56 1.83-1.06 3.07-1.12 2.78zm-6.64-3.64c0.15-1.06 0.49-1.61 0.75-1.22 0.29 0.39 0.18 1.25-0.25 1.94-0.45 0.74-0.65 0.46-0.5-0.72zm35.72 5.37c-0.73-1.55-0.74-2.64-0.04-2.92 0.61-0.25 1.18-1.56 1.26-2.93 0.11-1.84 0.58-2.34 1.78-1.91 0.9 0.3 2.06 0.08 2.57-0.49q0.88-1.02-0.35-0.55c-2.01 0.82-2.18-2.7-0.25-5.18 2.25-2.89 2.95-2.66 4.1 1.37 1.43 4.96-1.52 16.18-4.13 15.73-0.55-0.08-0.67-0.53-0.27-0.99 0.81-0.9-1.33-4.44-2.81-4.7-1.51-0.26-1.43 1.83 0.11 2.74 0.76 0.47 1.34 1.25 1.25 1.73-0.29 1.65-2.03 0.61-3.22-1.9zm7.76-7.76c0.52-6.93-0.42-8.25-2.67-3.81-0.86 1.69-0.73 2.06 0.59 1.8 1.25-0.25 1.56 0.31 1.26 2.12q-0.87 4.91-3.13 1.7c-1.48-2.09-2.33-1.78-1.84 0.67 0.19 0.99 1.45 1.94 2.87 2.2 2.43 0.41 2.54 0.23 2.92-4.68zm46.22 18.68c-0.31-0.42-0.48-1.25-0.38-1.81 0.11-0.64 0.57-0.49 1.17 0.35 0.54 0.77 0.71 1.58 0.36 1.82-0.32 0.23-0.85 0.07-1.15-0.36zm-73.04-17.59c0.31-1.75 0.95-1.91 1.56-0.37 0.23 0.57-0.08 1.24-0.71 1.48-0.62 0.26-1.01-0.24-0.85-1.11zm-12.61-4.71c0.32-1.87 0.93-2.9 1.45-2.45 0.93 0.83 0.15 4.15-1.2 5.1-0.45 0.32-0.56-0.87-0.25-2.65zm15.8 4.12c0.16-0.87 0.69-1.21 1.17-0.78 0.49 0.44 0.83 1.22 0.74 1.74-0.09 0.51-0.61 0.87-1.16 0.77-0.56-0.1-0.89-0.88-0.75-1.73zm10.38 2.45c0.39-0.45 0.28-1.05-0.26-1.34-0.55-0.3-0.56-2.78-0.05-5.53 0.5-2.74 1.09-6 1.29-7.25 0.21-1.24 0.83-2.18 1.41-2.08 0.63 0.12 0.47 2.57-0.42 6.38-0.97 4.21-1.1 7.03-0.39 8.72 0.93 2.23 0.87 2.47-0.63 2.21-0.93-0.16-1.35-0.66-0.95-1.11zm3.35-0.2c-0.31-0.42-0.42-1.49-0.24-2.36 0.24-1.29 0.43-1.22 1.04 0.44 0.76 2.03 0.21 3.36-0.8 1.92zm-32.79-6.54c-0.3-0.44-0.17-1.47 0.32-2.27 0.63-1.07 0.45-1.32-0.7-0.9-1.22 0.44-1.25 0.33-0.18-0.49 2.05-1.57 3.21-0.34 2.1 2.21-0.54 1.23-1.23 1.87-1.54 1.45zm8.45 0.52c0.13-1.06 0.47-1.61 0.74-1.22 0.28 0.39 0.17 1.26-0.24 1.94-0.47 0.74-0.66 0.46-0.5-0.72zm1.73-2.11c-0.28-1.03-0.21-3.84 0.15-6.23 0.39-2.62 0.13-4.81-0.65-5.52-1.07-0.97-1-1.12 0.46-0.89q2.38 0.38 2.44-2.95c0-0.42 0.51-0.68 1.12-0.57 0.61 0.1 0.71 0.85 0.22 1.68-0.49 0.82-1.35 2.54-1.91 3.8-0.86 1.92-0.71 2.26 0.81 1.97 1.63-0.33 1.66-0.13 0.22 1.72-0.89 1.14-1.64 3.63-1.65 5.54q-0.07 5.75-1.21 1.45zm22.32 1.54c0.18-1.98 1.23-2.48 2.23-1.06 0.59 0.85-0.78 3.37-1.75 3.21-0.37-0.07-0.59-1.03-0.48-2.15zm-30.96-7.94c0.45-4.24 1.25-6.86 2.36-7.68 0.53-0.39 0.37 1.45-0.35 4.07-1.68 6.12-2.43 7.45-2.01 3.61zm5.68 1.12c-0.14-1.65 0.02-3.2 0.36-3.43 0.94-0.67 1.38 2.73 0.59 4.69-0.51 1.29-0.76 0.96-0.95-1.26zm8.98 0.91c-0.24-0.61 0.02-1.03 0.61-0.93 0.58 0.1 0.99 0.63 0.89 1.18-0.1 0.56-0.38 0.98-0.61 0.93-0.24-0.04-0.65-0.57-0.89-1.18zm-18.22-5.16c0.1-0.52 0.67-1.15 1.28-1.39 0.61-0.24 0.99 0.26 0.84 1.12-0.15 0.86-0.72 1.48-1.28 1.39-0.55-0.1-0.93-0.6-0.84-1.12zm7.38-0.91c0.3-1.69 0.89-2.76 1.32-2.38 0.72 0.65-0.61 5.67-1.46 5.52-0.21-0.04-0.15-1.45 0.14-3.14zm9.99 1.45c0.06-3.12 0.96-5.67 2.87-8.15 2.53-3.3 2.78-3.96 1.59-4.16-0.46-0.09-1.65 1-2.62 2.38-1 1.44-1.87 1.97-2 1.21-0.35-1.94 4.3-5.84 5.29-4.44 0.52 0.74 1.44 0.32 2.59-1.15 0.99-1.26 2.16-2.23 2.63-2.15 1.3 0.22 0.69 1.81-1.09 2.83-2.23 1.29-6.01 6.81-7.12 10.43-0.85 2.78-2.18 4.77-2.14 3.2zm49.63 3.29c0.71-0.45 0.39-0.6-0.83-0.39-1.47 0.27-1.77 0-1.16-1.03 0.48-0.81-0.23-2.89-1.73-5.01-3.22-4.57-4.28-4.02-1.79 0.93 1.04 2.06 2.05 4.69 2.24 5.85 0.21 1.17 0.76 1.72 1.25 1.24 0.48-0.46 1.39-1.18 2.02-1.59zm-23.98-28.98c3.54-1.85 1.2-1.59-3.63 0.41-2.42 1-4.86 1.74-5.42 1.64-0.56-0.1-1.14 0.49-1.28 1.29-0.25 1.44 3.62 0.19 10.33-3.34zm-36.51-6.36c0.2-1.31 8.2-7.25 13.54-10.03 3.75-1.95 5.34-3.72 3.58-3.97-0.42-0.05-3.86 1.9-7.65 4.35-3.79 2.45-7.02 4.26-7.19 4.02-0.58-0.82 8.56-7.41 9.95-7.17 0.77 0.13 1.21-0.23 0.99-0.79-0.23-0.57 0.54-1.16 1.72-1.32 1.17-0.17 2.19-0.71 2.29-1.23 0.09-0.51 0.76-0.82 1.49-0.7 0.74 0.13 3.77-0.55 6.71-1.51 3.11-1 4.26-1.7 2.74-1.63-5.34 0.24-12.39 2.61-17.31 5.86-2.78 1.81-5.2 3.29-5.37 3.25-0.17-0.02-0.47-0.88-0.67-1.89-0.19-1.01-0.11-1.47 0.21-1.04 0.73 1.04 4.61-0.23 4.84-1.57 0.1-0.57-0.4-0.8-1.11-0.51-0.79 0.32-0.93 0.12-0.37-0.52 0.52-0.58 1.8-0.88 2.87-0.7 1.07 0.18 2.01-0.07 2.11-0.58 0.12-0.76 9.51-2.97 16.4-3.86 1.03-0.13 1.99-1.04 2.15-2.02 0.24-1.45 0.07-1.55-0.85-0.52-0.64 0.7-2.23 1.25-3.56 1.23-1.32-0.04-5.49 0.78-9.25 1.81-3.78 1.03-6.64 1.44-6.37 0.93 0.28-0.51 0.84-0.76 1.25-0.54 0.41 0.21 1.25-0.18 1.86-0.87 1.24-1.41 10.45-3.45 13.29-2.97 1 0.19 1.62-0.17 1.37-0.75-0.23-0.6 0.86-1.18 2.44-1.29 1.82-0.14 2.93 0.23 3.05 1.01 0.1 0.67 0.65 1.3 1.21 1.4 0.57 0.1 0.9-0.5 0.73-1.32-0.19-0.92 0.58-1.58 2-1.7 3.6-0.33 4.45 0.08 2.34 1.18-1.06 0.55-2.61 2.13-3.42 3.5-1.3 2.19-1.23 2.55 0.5 2.85 1.09 0.18 2.06-0.12 2.16-0.68 0.1-0.56 1.15-0.6 2.33-0.08 1.19 0.53 4.05 0.81 6.35 0.64l4.18-0.33-5.31-0.59c-4.88-0.52-6.95-1.84-3.73-2.35 0.73-0.12 0.17-0.22-1.25-0.22-1.89-0.01-2.24-0.25-1.3-0.92 2.03-1.47 7.2-1.24 6.3 0.28-0.45 0.74-0.01 1.43 1.06 1.7q1.8 0.45 1.51-1.07c-0.16-0.84 0.22-1.45 0.84-1.34 0.64 0.11 1.28 0.91 1.47 1.79 0.17 0.89 0.81 1.4 1.42 1.16 0.68-0.28 0.65-0.88-0.1-1.56-2.01-1.85 8.29 2.27 16.56 6.63 0.25 0.13 2.13 1.36 4.17 2.74 5.8 3.93 1.92 3.34-4.54-0.69-7.43-4.63-11.22-6.01-14.56-5.3l-2.69 0.57 2.53 0.39c4.23 0.63 12.43 4.22 16.27 7.08 2 1.5 4.35 2.85 5.23 3.01 0.89 0.15 1.25 0.67 0.81 1.17-0.49 0.56-1.82 0.1-3.58-1.23-2-1.52-3.14-1.87-4.07-1.22-0.91 0.66-0.8 0.99 0.38 1.2 0.9 0.14 1.86 0.82 2.13 1.51q0.46 1.19-1.28 0.33c-8.18-4.11-17.87-7.05-26.8-8.13-8.58-1.04-9.31-1.27-7.34-2.31 2.08-1.1 2.05-1.16-0.61-1.16-1.55 0-2.51-0.34-2.13-0.76 0.36-0.42-0.26-0.93-1.39-1.13-1.14-0.19-2.15 0.13-2.24 0.71-0.11 0.59 0.32 0.85 0.95 0.6 0.62-0.24 0.91 0.12 0.63 0.83-0.28 0.7 0.11 1.25 0.87 1.23 0.75-0.03 1.01 0.36 0.56 0.88-0.44 0.5-1.47 0.8-2.26 0.65-0.79-0.13-1.52 0.24-1.63 0.82-0.1 0.59-0.59 0.71-1.09 0.26-0.5-0.44-2.24-0.08-3.89 0.81-1.64 0.89-3.55 1.53-4.24 1.41-0.68-0.13-1.92 0.36-2.75 1.07-2.2 1.88-0.38 1.78 4.69-0.25 5.04-2.02 6.9-2.09 4.68-0.19-0.83 0.71-1.17 1.34-0.75 1.41 0.4 0.08 0.06 0.71-0.77 1.42-0.83 0.7-1.99 1.2-2.59 1.11-0.58-0.11-0.07-0.7 1.14-1.33 2.17-1.12 2.18-1.14 0.27-1.5-1.06-0.21-3.19 0.45-4.7 1.45-2.31 1.52-2.86 1.56-3.41 0.21-0.71-1.77-2.18-1.02-12.02 6.19-2.83 2.06-5.07 3.28-4.98 2.69zm16.73 30.33c0.92-1.55 2.01-2.76 2.44-2.68 1.05 0.18 0.91 0.62-0.98 3.4-2.25 3.29-3.47 2.69-1.46-0.72zm-21.46-5.27c0.46-0.77 1.52-1.29 2.35-1.14 1.24 0.22 1.24 0.51 0.01 1.56-0.83 0.7-1.89 1.22-2.35 1.13-0.46-0.07-0.48-0.78-0.01-1.55zm8.43-1.08c1.21-3.29 3.44-6.67 4.94-7.45 0.4-0.21 0.89-0.83 1.08-1.37 0.19-0.52 1.81-2.8 3.59-5.05 2.39-2.99 5.42-5.01 11.37-7.58 4.47-1.93 8.78-3.38 9.57-3.24 1.36 0.25-1.59 1.61-6.26 2.88-1.18 0.32-4.53 2.05-7.42 3.83-4.83 2.97-7.18 5.68-16.49 19.04-1.5 2.13-1.52 2.06-0.38-1.06zm1.57 2.36c-0.23-0.56 0.1-1.23 0.71-1.47 0.62-0.26 1.01 0.24 0.87 1.11-0.31 1.75-0.95 1.91-1.58 0.36zm61.33 9.89c-0.47-2.34 0.83-3.16 1.69-1.09 0.85 2.09 0.7 3.2-0.45 2.99-0.49-0.09-1.05-0.94-1.24-1.9zm-66.58-12.61c0.09-0.51 0.98-1.69 1.98-2.62 1.51-1.42 1.76-1.42 1.54-0.06-0.13 0.9-1.02 2.09-1.96 2.64-0.95 0.53-1.64 0.56-1.56 0.04zm-2.83-1.58c0.1-0.56 0.95-1.45 1.9-2 0.96-0.55 1.65-0.54 1.55 0.01-0.09 0.56-0.95 1.45-1.9 2-0.95 0.55-1.64 0.54-1.55-0.01zm63.62 0.35c0.25 0.05 0.29-0.36 0.07-0.92-0.23-0.55-1.3-0.93-2.39-0.83-1.08 0.08-2.19-0.38-2.46-1.05-0.27-0.66-1.02-1.28-1.68-1.39-0.66-0.1-0.22 0.9 0.97 2.22 1.18 1.31 2.81 2.28 3.59 2.14 0.78-0.13 1.63-0.22 1.9-0.17zm-32.27-31.57c1.43-1.82 5.51-3.03 6.74-2 0.41 0.36 1.15-0.26 1.65-1.37 0.51-1.11 0.99-2.03 1.06-2.05 0.08-0.01 2.73 0.17 5.89 0.43 3.69 0.28 5.93 0.89 6.25 1.68 0.34 0.84-0.38 0.91-2.26 0.22-3.8-1.4-9.42-1.2-9.69 0.35-0.26 1.56-3.03 2.39-7.31 2.18-0.69-0.02-1.12 0.59-0.97 1.37 0.15 0.8-0.38 1.31-1.21 1.17-1.16-0.2-1.18-0.65-0.15-1.98zm59.22 43.44c-0.78-1.21-1.2-2.18-0.92-2.13 0.28 0.05-1.05-1.9-2.95-4.33-1.9-2.41-5.03-6.47-6.96-8.99-1.94-2.54-6.14-6.89-9.35-9.68-6.14-5.35-6.21-6.65-0.11-1.97 6.54 4.99 7.66 6.08 6.88 6.64-0.43 0.29-0.34 0.62 0.18 0.71 0.54 0.09 1.5-0.2 2.15-0.65 0.76-0.55 2.78 0.89 5.92 4.22 2.62 2.78 4.85 5.48 4.95 6.02 0.1 0.52 0.63 0.78 1.19 0.56 0.55-0.23 0.84 0.6 0.63 1.83l-0.39 2.24-2.28-2.9c-1.25-1.6-3.78-4.89-5.61-7.3-1.84-2.43-3.76-4.24-4.28-4.04-0.79 0.32 4.44 8.41 5.57 8.61 0.22 0.04 1.73 2.13 3.35 4.66 1.64 2.53 3.26 4.48 3.61 4.34 0.35-0.15 0.53 0.84 0.38 2.18-0.15 1.34-0.33 2.39-0.4 2.33-0.08-0.07-0.77-1.11-1.56-2.35zm-45.29-23.24c0.1-0.55 0.63-0.93 1.19-0.83 0.55 0.1 0.91 0.62 0.83 1.17-0.1 0.56-0.64 0.93-1.19 0.83-0.54-0.1-0.92-0.62-0.83-1.17zm42.15 6.4c-1.14-1.26-4.84-4.91-8.22-8.13-3.38-3.22-5.5-5.73-4.71-5.58 0.78 0.16 4.01 2.76 7.17 5.8 3.16 3.05 6.19 5.34 6.75 5.12 0.57-0.23 0.37-1.1-0.44-1.94-1.29-1.34-1.28-1.56 0.16-1.85 0.9-0.17 1.57 0.23 1.5 0.91-0.19 1.83-0.05 4.12 0.4 6.24 0.51 2.39-0.03 2.27-2.61-0.57zm-34.51-19.2c-0.64-0.4-1.77-0.59-2.5-0.44-0.75 0.16-0.22 0.49 1.15 0.73 1.39 0.24 1.99 0.11 1.35-0.29zm-18.82-15.68c-1.67-0.89-13.7 2.75-12.89 3.9 0.25 0.35 3.46-0.26 7.16-1.37 3.68-1.11 6.25-2.24 5.73-2.53zm38.76 6.42c0.07-0.48-1.26-1.46-2.99-2.2-1.72-0.71-3.77-1.6-4.56-1.95-2.99-1.29-19.16-3.6-20.91-2.98-1.24 0.44 0.75 1.07 6.16 1.96 9.68 1.61 19.08 4.39 19.65 5.81 0.48 1.17 2.41 0.7 2.65-0.64zm3.96 22.04c-5.02-4.36-7.94-7.26-7.15-7.12 1.54 0.27 10.68 7.41 10.54 8.24-0.19 1.07-1.27 0.7-3.39-1.12zm-41.43-8.4c0.83-0.71 1.95-1.22 2.51-1.12 0.56 0.09 0.33 0.74-0.51 1.46-0.83 0.71-1.97 1.21-2.51 1.12-0.57-0.1-0.33-0.74 0.51-1.46zm13.61 1.84l-3.87-1.42 4.27 0.6c2.37 0.32 4.21 1.04 4.12 1.6-0.09 0.55-0.28 0.91-0.4 0.82-0.12-0.11-1.97-0.83-4.12-1.6zm-4.09-3.17c0.03-0.22 1.23-0.41 2.65-0.44 1.43-0.02 2.53 0.34 2.44 0.82-0.08 0.47-1.28 0.67-2.66 0.44-1.37-0.25-2.47-0.61-2.43-0.82zm25.25 0.68c-1-0.57-1.33-1.24-0.73-1.48 1.15-0.46 4.04 1.57 3.1 2.16-0.31 0.2-1.37-0.12-2.37-0.68zm-25.94-8.66c1.31-0.55 1.06-0.82-1.08-1.21-1.51-0.27-2.83-0.04-2.93 0.51-0.22 1.27 1.83 1.62 4.01 0.7zm37.34 0.67c0.39-0.28 1.27-0.17 1.94 0.25 0.74 0.45 0.46 0.65-0.71 0.5-1.07-0.14-1.62-0.49-1.23-0.75zm-60.8-20.23c0.92-0.39 2.34-0.59 3.17-0.45 1.34 0.24 1.32 0.33-0.16 0.97-0.92 0.39-2.35 0.59-3.18 0.45-1.34-0.23-1.32-0.33 0.17-0.97zm52.39 7.51c-1.23-1.02-3.49-2.09-5.01-2.37-1.51-0.28-2.66-1.02-2.55-1.64 0.11-0.66-0.89-1.09-2.42-1.07-1.44 0.02-2.76-0.3-2.93-0.72-0.17-0.43-3.39-1.19-7.17-1.71-3.97-0.53-5.96-1.09-4.74-1.35 1.17-0.23 6.82 0.33 12.54 1.25 8.7 1.38 10.21 1.86 9.06 2.84-1.1 0.93-0.65 1.45 2.28 2.6 2.01 0.8 3.96 1.43 4.33 1.42 0.37-0.01 0.83 0.68 1 1.55 0.39 1.97-1.44 1.64-4.39-0.8zm-47.14-8.07c0.07-0.34 1.35-0.86 2.86-1.15 1.65-0.33 2.53-1.04 2.21-1.82-0.28-0.71-0.14-0.95 0.32-0.55 1.27 1.12 12.96 0.2 14.13-1.12 0.79-0.9 1.25-0.84 2.01 0.24 1.11 1.56 0.68 1.7-11.01 3.33-3.79 0.54-7.72 1.14-8.75 1.34-1.03 0.2-1.83 0.09-1.77-0.27zm22.66-4.02c0.19-1.88 0.59-1.98 3.31-0.96 7.89 3 13.09 3.67 12.25 1.6-0.22-0.55-0.16-0.95 0.13-0.91 0.28 0.05 0.84 1.04 1.22 2.21 0.66 1.99 0.3 2.05-6.38 0.91-3.9-0.67-7.91-1.09-8.91-0.96-1.3 0.18-1.76-0.35-1.62-1.89zm-11.73-2.4c4.52-0.6 7.58-0.08 6.53 1.09-0.35 0.39-2.93 0.43-5.71 0.09l-5.05-0.62z"/>
		<path id="path2832" class="s1" d="m116.39 142.43c0.18-1.06 2.18-1.17 2.59-0.14 0.25 0.62-0.25 1.01-1.1 0.85-0.87-0.15-1.54-0.46-1.49-0.71zm-10.67-4.03c0.15-0.85 0.67-1.21 1.17-0.77 0.49 0.44 0.82 1.22 0.73 1.73-0.09 0.53-0.62 0.87-1.17 0.78-0.54-0.1-0.87-0.88-0.73-1.74zm6.9 1.89c0.17-0.98 2.82-1.72 4.71-1.33 0.64 0.12 0.18 0.74-1.04 1.36-2.5 1.3-3.89 1.27-3.67-0.03zm14.39 0.46c0.07-0.46 2.07-1.35 4.43-1.96 2.35-0.6 5.19-1.8 6.3-2.67q3.65-2.86 3.11 0.16c-0.13 0.83-0.84 1.4-1.55 1.28-0.7-0.12-3.52 0.79-6.26 2.01-5.24 2.36-6.28 2.56-6.03 1.18zm5.03 0.72c0.1-0.56 0.88-0.89 1.74-0.73 0.86 0.15 1.21 0.67 0.77 1.16-0.44 0.5-1.22 0.83-1.74 0.73-0.51-0.09-0.87-0.61-0.77-1.16zm7.57 1.41c-0.22-0.54 0.32-1.13 1.19-1.31 0.98-0.18 1.5 0.27 1.34 1.16-0.28 1.62-1.9 1.71-2.53 0.15zm-31.86-6.43c-0.2-0.49 1.15-0.44 3.01 0.11 1.85 0.55 3.34 1.18 3.3 1.39-0.13 0.75-5.97-0.64-6.31-1.5zm14.98 1.83c1.2-0.64 2.61-1.08 3.12-0.99 1.26 0.22 11.8-4.33 11.94-5.17 0.06-0.36 1.33-0.99 2.82-1.38 1.49-0.39 2.67-0.5 2.62-0.23-0.15 0.86-5.3 4.74-6.11 4.61-0.44-0.09-3.13 0.83-5.99 2.02-2.87 1.2-5.53 1.89-5.92 1.55-0.39-0.35-1.06-0.22-1.51 0.28-0.44 0.5-1.34 0.81-1.98 0.67-0.66-0.12-0.21-0.74 1.01-1.36zm-3.44-2.46c-0.18-0.93-1.52-1.53-3.71-1.67-2.52-0.18-2.86-0.37-1.3-0.74 2.01-0.48 2.01-0.54-0.01-1.46q-2.12-0.97-2.34 0.44c-0.34 1.96-5.13 0.56-5.43-1.58-0.25-1.85-9.24-9.15-9.49-7.71-0.09 0.48 1.46 2.09 3.45 3.57 3.61 2.71 5.36 5.1 3.48 4.77-0.54-0.1-1.19-0.67-1.43-1.28-0.26-0.61-1.25-1.24-2.21-1.41-0.96-0.18-2.5-1.25-3.4-2.41-0.9-1.14-3.11-3.64-4.91-5.54-1.81-1.9-3.2-3.94-3.1-4.51 0.11-0.59 1.57 0.64 3.26 2.74 1.68 2.09 3.4 3.56 3.81 3.27 0.43-0.29-0.04-1.32-1-2.26-2.5-2.44-4.72-5.64-5.47-7.88-1.12-3.29 1.22-1.84 3.11 1.93 0.96 1.93 3.58 5.01 5.81 6.87 2.24 1.84 4.6 3.92 5.24 4.63 0.65 0.69 1.77 1.46 2.49 1.69 0.72 0.25 3.08 1 5.24 1.7 3.88 1.24 7.62 3.69 8.57 5.62 0.69 1.41 3.09 0.24 2.51-1.22-0.29-0.72-0.07-0.83 0.55-0.28 0.74 0.64 0.64 1.41-0.34 2.68-1.61 2.05-2.98 2.06-3.38 0.04zm6.67-1.07c1.24-1.06 1.26-1.35 0.09-1.54-0.78-0.15-1.86-0.88-2.4-1.64-0.74-1.06-0.19-1.69 2.36-2.69 3.81-1.5 4.33-1.52 4.1-0.16-0.09 0.54-1.34 1.07-2.78 1.18-1.45 0.11-2.69 0.6-2.77 1.09-0.3 1.7 2.26 1.29 5.52-0.9 1.8-1.21 3.19-1.71 3.08-1.1-0.1 0.61-1.58 1.82-3.3 2.68-1.71 0.88-2.65 1.68-2.07 1.79 0.56 0.12 2.82-0.9 5.03-2.25 2.21-1.37 3.42-2.31 2.72-2.1-1.61 0.48-2.54-1.56-0.99-2.18 1.82-0.73 5.01-5.41 6.34-9.29 0.91-2.69 0.88-3.44-0.16-3.02-1.04 0.43-1.05-0.37-0.04-3.26 0.72-2.08 1.5-4.81 1.72-6.05 0.22-1.23 0.89-2.17 1.48-2.06 0.61 0.09 0.64 0.98 0.08 2.07-0.61 1.18-0.52 1.97 0.23 2.11 1.49 0.25 2.47-10.64 1.13-12.56-0.49-0.68-0.72-2.2-0.52-3.37 0.38-2.19-1.51-12.12-3.96-20.8-1.79-6.34-6.75-13.53-10.2-14.79-6.92-2.53-15.16 0.91-19.9 8.33-3 4.67-4.89 16.75-3.25 20.76 0.26 0.66 0.48 1.72 0.45 2.38-0.01 0.65 1.15 3.49 2.56 6.31 2.22 4.4 3 5.14 5.65 5.28 1.69 0.07 3.57 0.21 4.18 0.27 1.11 0.12 4.15-3.7 4.5-5.65 0.09-0.58-1.42 0.15-3.36 1.61-3.46 2.62-6.09 2.46-4.47-0.25 0.45-0.77 0.26-1.48-0.46-1.6-0.71-0.12-1.98-1.11-2.83-2.19-0.91-1.17-1.63-1.52-1.74-0.83-0.11 0.63 0.59 1.86 1.58 2.74 0.99 0.88 1.73 1.97 1.65 2.42-0.08 0.46-0.98-0.01-1.99-1.02-2.19-2.18-4.02-7.37-2.99-8.53 1.12-1.28 2.4 0.42 1.48 1.97q-0.84 1.39 0.73 1.08c0.85-0.18 2.01 0.5 2.57 1.46 1.46 2.56 7.58 3.46 7.92 1.17 0.15-0.98 1.05-3.78 2.03-6.24 2.48-6.33 0.55-16.2-3.32-16.96-0.45-0.08-0.61 0.36-0.36 0.97 0.24 0.61-0.03 1.02-0.61 0.92-0.58-0.1-1.65 1.57-2.38 3.72-0.74 2.15-1.75 3.83-2.27 3.74-0.52-0.1-0.61-0.53-0.19-1 0.4-0.46 0.31-1.2-0.2-1.66-0.5-0.45-0.5-1.29 0.03-1.86 1.44-1.61 1.86-3.49 0.84-3.66-0.5-0.08-1.07 0.75-1.26 1.84-0.19 1.11-0.84 1.93-1.42 1.82-1.3-0.22 0.92-6.35 2.39-6.64 0.52-0.1 0.8-0.54 0.62-0.98-0.17-0.45 0.91-1.9 2.41-3.23 3.18-2.83 7.84-2.92 10.74-0.23 3.11 2.9 4.57 2.52 2.49-0.63-1.55-2.36-2.56-2.89-5.61-2.95-4.75-0.1-8.37 1.46-11.09 4.76-1.2 1.44-2.56 2.56-3.04 2.48-0.49-0.08-0.27-0.66 0.47-1.3 0.74-0.63 1.15-1.42 0.92-1.75-0.57-0.82 8.57-6.56 10.18-6.39 0.69 0.08 2.38 0.21 3.74 0.3 2.29 0.14 3.76 1.56 9.22 8.98 1.39 1.86 3.73 9.36 4.66 14.92 0.3 1.7 0.15 1.78-0.96 0.48-0.72-0.85-1.19-2.21-1.05-3.04 0.34-1.93-3.76-13.3-4.85-13.5-1.77-0.3-2.31 2.53-0.64 3.28 1.79 0.82 4.32 8.78 5.04 15.82 0.14 1.3 0.66 2.43 1.15 2.53 0.5 0.08 0.77-0.58 0.6-1.45-0.19-0.89 0.13-1.53 0.68-1.44 0.91 0.16 1.61 3.63 1.51 7.5-0.03 0.85 0.08 2.91 0.24 4.58 0.2 2.18-0.01 2.79-0.74 2.13-0.56-0.5-1-2.74-0.98-4.98 0.04-2.26-0.26-4.38-0.67-4.73-1.28-1.14-1.26 3.84 0 7.57 1.52 4.37 0.97 8.26-1.4 9.93-0.97 0.68-1.91 2.07-2.08 3.08-0.23 1.36-0.83 1.61-2.23 0.98-1.38-0.64-2-0.38-2.22 0.86-0.26 1.52-0.05 1.6 1.6 0.66 1.64-0.94 1.8-0.89 1.13 0.33-0.44 0.77-1.56 1.21-2.51 0.95-0.95-0.25-2.66 0.67-3.82 2.07-2.43 2.94-7.33 3.86-12.94 2.42-8.41-2.16-17.35-15.35-17.05-25.15 0.07-2.2 0.19-2.29 0.84-0.62 0.42 1.07 0.41 2.34-0.03 2.83-0.42 0.5-0.42 0.96 0.03 1.03 0.45 0.08 1.67 2.59 2.73 5.56 2.96 8.38 7.46 12.76 14.82 14.51 5.84 1.37 6.23 1.31 10.1-1.5 2.22-1.61 4.2-3.83 4.38-4.93 0.27-1.52-0.62-1.11-3.71 1.77-3.36 3.13-4.71 3.71-7.97 3.41-2.17-0.19-4.93-0.79-6.16-1.34-2.84-1.25-7.88-7.47-10.67-13.15-2.67-5.43-2.5-7.82 0.23-3.27 1.1 1.85 1.94 3.69 1.88 4.08-0.24 1.35 5.28 9.16 6.07 8.6 0.44-0.3 0.71-0.06 0.6 0.56-0.28 1.64 6.29 3.85 8.17 2.77 0.87-0.49 2.32-0.45 3.25 0.1q1.7 1.03 1.16-0.3c-0.63-1.53-4.04-2.31-4.75-1.08-0.67 1.17-7.5-2.69-9.15-5.16-1.23-1.84-1.16-1.85 0.96-0.2 3.61 2.79 7.62 3.62 10.07 2.07 1.4-0.89 2.12-0.95 1.99-0.18-0.11 0.67 0.29 1.02 0.9 0.76 0.61-0.24 1.19-0.89 1.28-1.44 0.1-0.56-0.32-0.8-0.93-0.56-1.19 0.48-1.26-1.01-0.08-1.84 1.55-1.09 2.89 2.31 1.58 4-2.25 2.9-0.61 2.94 1.85 0.05 1.3-1.52 2.93-2.67 3.64-2.55 0.7 0.12 1.36-0.23 1.46-0.78 0.1-0.55 0.66-0.91 1.24-0.81 0.62 0.11 0.66 1 0.09 2.08-0.54 1.04-0.54 1.97 0.01 2.06 1.32 0.23 3.61-5.18 4.07-9.62 0.49-4.7 0.14-6.44-1.23-5.9-0.66 0.27-0.88-0.89-0.52-2.86 0.73-4.17-1.11-15.4-3.12-19.03l-1.52-2.74 1 3.78c0.55 2.08 1.26 4.55 1.56 5.47 0.66 1.95 0.81 5.89 0.47 12.57-0.21 4.03-0.54 4.76-2.18 4.91-1.97 0.16-2.54 1.3-3.59 7.13-0.31 1.79-1.03 3.17-1.58 3.08-0.55-0.09-0.59-0.64-0.09-1.2q0.89-1.03-0.49-0.48c-1.06 0.43-1.09 0.03-0.12-1.67 1.59-2.79 3.66-16.82 2.7-18.2-0.42-0.57-0.76 0.28-0.81 1.98-0.03 1.64-0.52 3.18-1.08 3.4-0.56 0.23-0.82-0.8-0.56-2.29 0.25-1.49 0.42-4.45 0.39-6.6-0.08-4.42 0.81-4.99 1.59-1.01 0.28 1.48 1.21 2.79 2.05 2.94 1.16 0.2 1.33 1.45 0.67 5.22-0.47 2.73-0.44 5.32 0.07 5.77 0.86 0.76 1.64-5.26 1.44-11.21-0.08-2.89-2.01-9.04-4.14-13.27-1.43-2.84-1.49-3.45-0.25-2.71 0.99 0.59 1.42 0.51 1.14-0.19-0.68-1.69-8.09-4-10.28-3.22-1.47 0.52-1.18 0.77 1.41 1.14 3.79 0.55 7.27 5 9.47 12.08 1.48 4.82 1.54 5.54 0.41 5.34-0.41-0.07-1.13-1.63-1.6-3.47-0.62-2.5-1.11-3.04-1.92-2.15-0.89 0.99-1.07 0.93-0.98-0.31 0.08-0.85 0.26-1.89 0.42-2.32 0.16-0.44-0.44-2.3-1.32-4.13-1.29-2.7-2.25-3.4-5-3.7-1.87-0.19-3.23 0.08-3.02 0.59 0.21 0.51-0.28 1.5-1.08 2.19-1.86 1.58-1.25 1.67 2.63 0.44 2.78-0.88 3.22-0.78 4.34 1.01 2.23 3.54 2.97 8.34 2.26 14.81-0.48 4.54-1.03 6.28-1.9 6.13-0.92-0.15-1 0.11-0.26 1.15 0.73 1.04 1.35 1.13 2.58 0.43 1.33-0.76 1.64-0.48 1.68 1.48 0.03 1.34-0.45 3.25-1.06 4.23-0.95 1.59-1.05 1.5-0.77-0.72 0.32-2.48 0.3-2.47-1.59 0.25-1.05 1.52-2.42 3.26-3.04 3.89-1.28 1.29-10.75 1.11-10.55-0.2 0.24-1.6-4.44-8.32-5.38-7.73-0.51 0.33-0.57 0.16-0.13-0.37 0.43-0.54 0.33-2.42-0.24-4.17-1.35-4.2-1.45-6.17-0.62-13.43 1.29-11.32 9.28-20.14 18.9-20.88 3.62-0.28 4.98 0.11 8.43 2.4 2.26 1.51 4.38 2.54 4.71 2.31 0.32-0.23 0.42-0.57 0.21-0.74-4.29-3.72-6.88-5.07-11.05-5.79-4.39-0.76-5.6-0.48-10.32 2.43-3.66 2.24-5.28 2.79-5.1 1.71 0.15-0.86 3.04-2.8 6.42-4.29 5.79-2.54 6.49-2.61 12.07-1.11 4.78 1.28 6.16 1.31 7.09 0.15 1.07-1.3 1.41-1.23 3.58 0.79 1.31 1.23 2.67 2.04 3.02 1.79 0.9-0.63 5.91 3.33 5.72 4.51-0.25 1.41-1.98 0.89-2.21-0.65-0.15-0.98-0.7-0.98-2.07-0.02-1.7 1.21-1.55 1.8 1.67 6.72 2.74 4.22 3.78 7.35 4.68 14.2 0.63 4.84 1.07 9.34 0.95 9.99-0.11 0.66 0.17 1.26 0.63 1.35 1.16 0.19 1.66-3.06 0.73-4.78-0.42-0.78-0.51-1.38-0.18-1.33 0.32 0.06 0.06-2.07-0.57-4.74-1.09-4.56-0.89-5.28 1.18-4.52 0.82 0.3 0.84-1.04 0.09-5.59-0.35-2.09-0.33-2.09 0.9 0.1 1.41 2.51 1.18 5.51-0.47 6.17-0.7 0.28-0.76 1.51-0.18 3.39 1.27 4.01 1.84 11.03 1.27 15.35-0.27 1.97-0.07 3.64 0.43 3.72 1.06 0.18 1.64-9.13 0.82-13.19-0.3-1.52-0.58-3.47-0.62-4.32-0.03-0.86-0.24-2.4-0.46-3.44-0.22-1.09 0.07-1.79 0.69-1.68 0.59 0.09 0.97-0.65 0.83-1.67-0.53-4.02 2.49 2.84 4.56 10.32 2.9 10.5 1.4 10.97-1.68 0.54-2.78-9.39-3.71-10.24-1.48-1.36 0.79 3.14 1.43 5.94 1.44 6.22 0 0.28 0.14 1.24 0.28 2.11 0.14 0.88 0.45 3.25 0.69 5.29 0.33 2.79 0.46 2.99 0.56 0.84 0.06-1.56 0.51-3 1-3.19 1.32-0.54 1.5 10.74 0.26 18.41-0.58 3.73-0.73 6.84-0.32 6.92 0.41 0.07 0.68 0.58 0.58 1.15-0.1 0.56-1.28 0.63-2.61 0.14-1.96-0.72-2.5-0.49-2.79 1.2-0.19 1.15-1.78 3.41-3.5 5-1.73 1.61-2.78 2.98-2.34 3.04 1.4 0.22 3.18-0.92 4.21-2.68 0.56-0.97 1.42-1.31 2.01-0.8 0.95 0.84-8.86 8.22-14.99 11.27-2.2 1.09-2.2 1.07-0.15-0.64 2.66-2.22 2.84-3.16 0.55-2.69-1.95 0.38-1.16-0.96 2.17-3.72 1-0.83 1.57-1.85 1.27-2.29-0.31-0.43-1.42-0.04-2.45 0.88-2.11 1.85-1.92 1.4 1.67-3.87 3.07-4.5 4.05-6.66 4.94-10.81 0.38-1.78 1.09-3.17 1.58-3.08 1.29 0.22-1.65 9.39-4 12.5-1.82 2.4-1.87 2.84-0.61 4.67 1.32 1.89 1.29 2.07-0.57 3.01-2.43 1.23-2.7 2.21-0.7 2.55 0.83 0.15 1.61-0.38 1.74-1.16 0.14-0.78 0.86-1.58 1.6-1.79 1.09-0.29 1.12-0.54 0.22-1.17-0.82-0.56-0.27-1.61 1.94-3.66 1.96-1.81 2.99-3.58 2.8-4.85-0.24-1.64-0.14-1.69 0.54-0.3 0.71 1.46 0.86 1.45 1.13-0.06 0.17-0.97-0.13-1.83-0.68-1.93-0.55-0.1-0.93-0.58-0.84-1.08 0.08-0.5 0.93-0.65 1.86-0.35 0.94 0.32 1.16 0.28 0.49-0.08-1.71-0.94 1.12-14.55 2.98-14.24 0.7 0.12 1.42-0.49 1.57-1.35 0.14-0.88-0.32-1.5-1.05-1.38-0.74 0.12-1.65-1.27-2.04-3.11-0.69-3.24-0.72-3.2-0.96 1.28-0.24 4.48-0.28 4.53-1.33 1.84-1.05-2.68-1.09-2.59-1.57 2.31-0.69 7.15-0.57 7.62 1.05 3.8 0.88-2.08 0.53 0.61-0.89 7.07-1.94 8.74-2.71 10.71-4.68 12.1l-2.37 1.66 1.69-2.81c2.8-4.71 5.18-13.17 3.91-13.92-0.61-0.37-0.83-2.79-0.49-5.42 0.35-2.6 0.6-5.44 0.55-6.31-0.05-0.85-0.17-3.08-0.27-4.95-0.11-1.86-0.57-3.45-1.02-3.53-0.45-0.08-0.59 1.26-0.31 2.97 0.28 1.72 0.15 4.36-0.31 5.89-0.61 2.03-0.96 0.74-1.3-4.9-0.24-4.23-0.13-8.03 0.26-8.48 0.39-0.44 0.23-0.88-0.35-0.99-0.58-0.1-0.8-1.73-0.47-3.63 0.33-1.91 0.25-3.77-0.19-4.16-0.44-0.39-0.89-1.98-1.01-3.54-0.27-3.65-7.13-16.18-10.17-18.55-3.35-2.62-4.23-1.35-0.97 1.42 1.48 1.26 2.41 2.64 2.06 3.04-0.36 0.41 0.06 0.86 0.91 1 0.86 0.15 1.51 0.61 1.45 1.03-0.07 0.41 1.06 2.59 2.51 4.84 1.45 2.25 2.71 4.79 2.78 5.64 0.07 0.85 0.41 4.41 0.77 7.91 0.34 3.49 0.38 6.83 0.06 7.4-0.31 0.58-0.14 1.43 0.38 1.89 0.52 0.46 0.86 1.31 0.76 1.9-0.12 0.67-0.67 0.51-1.47-0.44-0.71-0.83-1.17-2.22-1.02-3.08 0.15-0.86-0.35-3.79-1.1-6.51-0.76-2.73-1.6-5.93-1.89-7.11-0.49-2.02-0.45-2.02 0.44-0.1 2.68 5.81 2.8 5.95 2.52 3.19-0.16-1.44-0.67-3.62-1.16-4.84-0.73-1.83-1.09-2-2.07-0.98-1.41 1.51-1.02 4.65 1.74 14.07 0.31 1.03 0.42 2.67 0.26 3.62-0.17 0.95 0.67 2.84 1.85 4.2 1.54 1.76 2.11 3.89 1.98 7.35-0.12 3.01-0.59 4.81-1.21 4.71-0.55-0.1-0.86-0.98-0.69-1.94 0.92-5.22 0.82-7.35-0.38-9.07-0.75-1.05-1.66-1.68-2.05-1.41-0.39 0.28-0.16 1 0.52 1.61 1.69 1.47-0.37 15.06-2.17 14.37-0.65-0.26-1.27-0.02-1.37 0.53-0.1 0.55 0.28 1.09 0.83 1.17 0.54 0.1 0.84 1.12 0.63 2.28-0.49 2.86-5.27 12.61-6.85 14.01-0.71 0.62-0.84 1.06-0.3 0.97 0.96-0.14 1.35 0.67 1.07 2.28-0.17 0.99-8.83 5.22-11.73 5.74-1.7 0.32-1.78 0.17-0.47-0.94zm18.45 6.82c0.24-1.35 2.17-1.89 2.63-0.73 0.22 0.56-0.31 1.15-1.19 1.33-0.88 0.17-1.52-0.1-1.44-0.6zm-40.41-6.69c-0.91-0.43-1.6-1.15-1.52-1.6 0.07-0.46 1-0.45 2.06 0.02 1.05 0.49 1.84 1.28 1.76 1.77-0.09 0.49-0.26 0.81-0.38 0.72-0.14-0.08-0.99-0.5-1.92-0.91zm12.34 1.8c0.1-0.55 0.63-0.91 1.18-0.83 0.55 0.1 0.93 0.64 0.83 1.18-0.1 0.55-0.62 0.93-1.18 0.83-0.55-0.09-0.92-0.62-0.83-1.18zm-17.22-5.11c-0.27-0.65-1.19-1.04-2.04-0.89-0.84 0.17-1.22-0.06-0.82-0.51 0.41-0.45-0.17-1.28-1.27-1.85-1.92-1-5.26-4.96-5.06-6.02 0.09-0.62 3.68 2.25 5.14 4.15 0.6 0.76 2.33 2.22 3.88 3.25 1.53 1.02 2.73 2.2 2.67 2.62-0.21 1.13-1.95 0.61-2.5-0.75zm11.05-1.15c-2.11-1.91-3.36-1.72-1.5 0.2 0.94 0.98 1.95 1.59 2.26 1.37 0.3-0.21-0.04-0.93-0.76-1.57zm51.1-15.66c0.01-0.98 0.44-2.26 0.96-2.84 0.51-0.57 0.7-2.24 0.42-3.69-0.28-1.46-0.2-2.87 0.19-3.16 0.39-0.26 0.18-0.58-0.46-0.69-1.44-0.26-2.2 3.38-0.93 4.49 0.5 0.45 0.57 1.19 0.16 1.65-0.42 0.47-1.18 0.48-1.71 0.02-0.57-0.52-0.79-0.25-0.56 0.65 0.22 0.83 0.54 2.34 0.71 3.37 0.17 1.02 0.51 1.9 0.77 1.94 0.24 0.04 0.45-0.74 0.45-1.74zm-62.63-50.91c3.24-8.26 14.34-18.68 20.94-19.66 4.48-0.67 4.29-1.55-0.3-1.42-1.83 0.04-5.02 1.36-7.1 2.91-3.82 2.86-5.47 3.36-5.15 1.55 0.1-0.55 0.85-0.88 1.67-0.75 0.83 0.15 1.58-0.18 1.68-0.73 0.48-2.73-4.47-0.29-6.2 3.06-0.55 1.04-1.65 1.77-2.47 1.63-1.95-0.34-0.19-2.53 4.96-6.24 3.14-2.24 3.5-2.79 1.86-2.76-2.15 0.03-10.06 7.47-13.68 12.83-1.14 1.71-2.28 2.83-2.52 2.5-0.23-0.33 0.46-1.77 1.55-3.21 1.07-1.42 2.14-3.02 2.36-3.55 0.22-0.53 1.69-2.05 3.27-3.38 1.58-1.34 2.97-3 3.09-3.69 0.13-0.7 1.33-1.59 2.67-1.99 1.34-0.39 4.2-1.41 6.34-2.28 3.51-1.41 3.61-1.4 1.04 0.06-4.89 2.77-2.33 2.71 5.16-0.13 3.94-1.5 6.5-2.84 5.68-2.99-1.32-0.24-1.31-0.37 0.18-0.99 1.39-0.59 1.34-0.79-0.32-1.15-1.63-0.37-1.45-0.59 1-1.2 1.66-0.41 2.72-1.14 2.39-1.62-0.34-0.49 0.09-0.45 0.98 0.09 0.99 0.58 1.7 0.47 1.83-0.3 0.16-0.92 1.84-0.83 6.39 0.37 4.75 1.24 5.69 1.29 4.1 0.18-2.54-1.77-2.5-2.83 0.08-2.38 1.06 0.19 1.6 0.72 1.18 1.19-0.41 0.46-0.28 0.64 0.28 0.42 2.16-0.86 7.55 2.14 7.97 4.44 0.41 2.17 0.27 2.21-2.43 0.71-2.2-1.22-3.12-1.33-3.89-0.47-0.68 0.78-1.87 0.75-3.73-0.14-2.63-1.23-8.35-2.05-13.63-1.95-0.81 0.01-0.94 2.09-0.21 3.87 0.3 0.72-0.08 1.45-0.82 1.64-0.75 0.19 0.24 0.53 2.19 0.76 2.33 0.27 3.38 0.82 3.07 1.59-0.27 0.68 0.62 1.36 2.11 1.62 1.45 0.26 2.38-0.04 2.12-0.66-0.24-0.61 0.18-1 0.96-0.86 2.09 0.35 12.16 6.03 13.51 7.61 0.68 0.8 1.23 0.96 1.33 0.38 0.16-0.89-3.85-4.14-9.96-8.08-1.98-1.28-1.74-1.3 1.56-0.17 2.12 0.72 4.38 2.04 4.98 2.9 0.63 0.88 1.59 1.67 2.16 1.77 0.57 0.1 2.95 2.42 5.28 5.17 2.32 2.75 4.49 4.8 4.81 4.57 0.77-0.54-7.24-10.27-8.64-10.52-0.58-0.1-1.48-0.81-2.02-1.56-1.41-2.01-7.61-5.24-11.29-5.9-1.77-0.31-3.4-1.06-3.64-1.67-1.09-2.69 12.97 3.39 17.7 7.67 5.02 4.52 14.6 17.47 14.28 19.3-0.18 1.1-0.72 0.75-1.83-1.2-0.86-1.51-1.94-3.39-2.39-4.16-0.45-0.77-1.57-1.24-2.48-1.06-1.04 0.21-2.76-1.16-4.54-3.61-1.57-2.16-2.95-3.46-3.04-2.9-0.1 0.57 0.96 2.48 2.36 4.24 1.4 1.76 2.46 3.67 2.37 4.26-0.11 0.62 0.73 0.94 1.99 0.76 1.69-0.23 2.94 0.82 5.34 4.4 1.72 2.59 3.45 4.48 3.84 4.21 0.38-0.27 0.31-1.17-0.17-1.99-0.47-0.83-0.55-2.04-0.17-2.7 0.42-0.73 1.01-0.03 1.5 1.76 0.45 1.65 1.12 3.04 1.5 3.1 0.37 0.07 1.77 2.4 3.12 5.19 1.35 2.79 2.15 5.02 1.77 4.95-0.81-0.13-3.39-4.18-5-7.82-0.61-1.38-1.56-2.32-2.12-2.1-0.55 0.22-0.22 1.95 0.74 3.84 3.51 6.9 3.82 7.7 2.88 7.54-0.53-0.08-2-2.31-3.28-4.96-2.58-5.31-5.23-9.39-8.41-13.05l-2.11-2.43 1.95 3.17c1.07 1.73 1.6 3.42 1.16 3.72-0.43 0.3-2.66-2.4-4.92-6.02-6.33-10.06-11.9-14.86-13.71-11.82-0.52 0.87-0.36 1.49 0.38 1.53 0.71 0.03 1.98 0.23 2.83 0.44 2.1 0.54 8.84 8.78 8.31 10.18-0.23 0.62-0.24 2.25-0.02 3.64 0.67 4.33-2.28 4.41-4.82 0.14-2.32-3.9-2.1-5.56 0.36-2.73 1.31 1.5 1.44 1.46 1.09-0.3-0.28-1.5-0.02-1.78 1.04-1.14 2.51 1.48 1.66-0.51-1.94-4.59-3.64-4.11-5.17-5-5.47-3.2-0.11 0.6-1.04 0.21-2.13-0.88-1.08-1.07-4.17-2.63-6.87-3.47-3.54-1.11-4.32-1.64-2.8-1.89 1.15-0.2 3.37 0.25 4.93 1 2.08 1.01 3.3 1.05 4.59 0.13 1.05-0.74 1.31-1.31 0.62-1.44-0.63-0.11-1.4 0.3-1.72 0.89-0.43 0.81-1.06 0.7-2.52-0.44-1.07-0.84-3.56-1.79-5.52-2.13-1.96-0.34-3.5-1.07-3.4-1.62 0.1-0.56-0.27-1.08-0.79-1.17-0.54-0.1-0.83 0.67-0.64 1.69 0.32 1.76 0.23 1.75-1.31-0.18-1.15-1.4-2.17-1.83-3.31-1.35-1.23 0.51-1.3 0.74-0.31 0.93 0.72 0.13 1.84 0.97 2.46 1.86 0.99 1.39 0.69 1.65-1.93 1.71-3.15 0.08-9.59 2.69-11.33 4.59-0.55 0.59-1.65 1.57-2.45 2.2-1.62 1.25-4.68 4.81-4.83 5.61-0.05 0.29 0.37 0.59 0.91 0.69 0.56 0.09 1.11-0.39 1.22-1.09 0.41-2.29 10.31-9.22 14.54-10.16 5.43-1.21 18.36 1.56 14.52 3.09-0.74 0.31-2.62-0.07-4.17-0.81-6.9-3.34-16.89 0.09-22.75 7.82-1.36 1.78-2.49 2.32-3.72 1.74-1.28-0.57-2.18-0.09-3.21 1.71-0.78 1.39-2.01 3.34-2.73 4.35-1.02 1.45-1.06 1.23-0.17-1.06zm-18.32-11.46c0.31-1.77 3.95-6.63 6.36-8.45 0.82-0.63 1.6-1.76 1.74-2.52 0.12-0.76 1.09-1.68 2.14-2.06 1.06-0.36 1.68-1.01 1.39-1.42-0.76-1.06-6.23 3.01-6 4.47 0.1 0.67-0.53 1.1-1.4 0.95-0.88-0.16-1.67 0.17-1.77 0.72-0.09 0.56-0.67 0.92-1.29 0.82-1.68-0.29 4.82-6.16 12.56-11.34 6.85-4.58 8-5.76 6.01-6.1-0.59-0.1-0.83 0.39-0.55 1.09 0.3 0.75 0.13 0.94-0.41 0.47-0.51-0.45-4.03 1.61-7.83 4.58-4.38 3.41-7.4 5.11-8.27 4.59-1.12-0.67-1.03-0.91 0.49-1.45 1-0.35 5.17-3.02 9.25-5.93 5.3-3.78 7.67-4.93 8.32-4.01 0.63 0.9 1.43 0.88 2.81-0.1 2.17-1.52 2.85-1.61 2.63-0.33-0.15 0.92-6.85 5.62-11.76 8.28-1.56 0.85-2.58 1.91-2.25 2.37 0.73 1.04 12.03-5.75 12.38-7.44 0.15-0.69 1.32-1.06 2.61-0.84 2.92 0.51 9.37-1.34 8.9-2.55-0.33-0.82 5.23-1.71 10.99-1.76 1.37-0.01 2.8-0.28 3.21-0.59 0.4-0.31-0.81-0.54-2.68-0.52-2.38 0.05-3.16-0.24-2.55-0.92 1.58-1.79 20.83 4.43 30.24 9.77 1.55 0.89 4.93 3.57 7.52 5.99 4.33 4.02 6.65 5.01 5.59 2.39-1.02-2.56-16.59-12.55-24.46-15.7-4.67-1.88-7.13-3.21-5.46-2.96 1.66 0.24 5.84 1.63 9.28 3.08 3.43 1.45 6.8 2.79 7.48 2.99 0.67 0.19 1.16 0.73 1.08 1.19-0.08 0.46 0.42 0.94 1.11 1.06 0.69 0.12 2.45 1.13 3.92 2.26 1.46 1.12 3.1 1.71 3.64 1.34 0.54-0.38-0.68-1.81-2.73-3.16-2.04-1.35-3.64-2.82-3.57-3.25 0.07-0.43 2.2 0.69 4.74 2.48 2.52 1.79 4.51 3.73 4.41 4.29-0.09 0.56-0.55 0.7-1.01 0.28-0.45-0.4-1.19-0.33-1.63 0.17-0.45 0.5-0.4 0.99 0.1 1.08 1.26 0.22 4.61 4.44 4.42 5.58-0.1 0.51-0.79 1.38-1.56 1.91-1.06 0.76-2.01 0.33-4.07-1.81-5.66-5.9-17.38-12.62-26.21-15.01-2.52-0.68-5-1.61-5.49-2.05-0.5-0.44-0.99-0.31-1.09 0.27-0.11 0.59-0.86 0.94-1.69 0.79-0.83-0.13-1.59 0.2-1.67 0.75-0.21 1.17-0.04 1.2 5.65 1.09 3.49-0.07 4.16 0.16 3.54 1.22-0.43 0.71-1.5 1.1-2.39 0.86-5.15-1.4-9.18-1.42-9.42 0-0.33 1.93-1.75 1.68-3.04-0.58-0.73-1.26-1.38-1.51-2.29-0.86-0.91 0.64-0.91 1.22 0.01 2.03 0.99 0.88 0.57 1.2-1.78 1.34-6.86 0.44-25.13 10.26-27.96 15.01-2 3.39-1.85 4.85 0.23 2.33 2.27-2.75 2.32-1.75 0.08 1.55-1.19 1.73-1.8 1.98-2.24 0.95-0.48-1.14-0.86-1.16-1.81-0.11-0.66 0.72-1.46 0.93-1.78 0.48-0.32-0.45 0.11-1.41 0.95-2.13 0.84-0.72 1.26-1.35 0.93-1.41-0.35-0.06 0.34-0.95 1.5-2 3.46-3.07 15.72-11.8 15.6-11.11-0.06 0.36 0.53 0.26 1.33-0.2 3.47-2.03 10.03-4.49 11.36-4.26 1.45 0.26 2.49-1.62 1.06-1.89-2.2-0.42-15.26 4.71-20.13 7.89-5.76 3.79-14.71 12.88-15.15 15.41-0.13 0.79-0.74 1.63-1.35 1.87-0.61 0.25-0.98-0.3-0.82-1.22zm37.59 78.26c-0.25-0.61 0.48-0.95 1.61-0.76 1.13 0.2 1.99 0.81 1.89 1.37-0.08 0.54-0.82 0.89-1.61 0.74-0.79-0.13-1.64-0.74-1.89-1.35zm31.64 4.98c0.85-0.72 2.16-1.2 2.92-1.07 0.75 0.13 1.34-0.18 1.28-0.7-0.1-0.97 4.93-4.42 6.15-4.21 1.23 0.22-7.79 6.54-9.86 6.92-1.72 0.31-1.79 0.17-0.49-0.94zm-36.34-7.93c-0.66-1.66-0.34-1.73 5.68-1.25 5.77 0.47 6.59 0.93 2.81 1.63-4.99 0.92-8.02 0.79-8.49-0.38zm-6.06-2.05c-1.15-0.71-2.06-1.54-2-1.83 0.18-1.1 3.78 0.16 5.41 1.9 1.98 2.11 0.06 2.07-3.41-0.07zm0.84-3.38c-1.54-0.97-4.07-3.3-5.63-5.16-1.72-2.04-2.88-2.82-2.9-1.96-0.03 0.8-0.25 2.28-0.49 3.31-0.38 1.56-0.66 1.61-1.78 0.3-0.99-1.17-0.99-1.69 0.01-2.09 0.93-0.38 0.63-1.47-1.02-3.62-1.3-1.71-2.04-3.04-1.65-2.97 0.41 0.07-0.03-1.29-0.96-3.01-1.42-2.63-3.51-9.47-3.29-10.76 0.04-0.21 0.51-0.3 1.06-0.21 0.54 0.09 1.07 1.38 1.18 2.86 0.11 1.48 1.38 5.3 2.83 8.49 3.26 7.18 3.05 6.86 3.91 6.25 0.39-0.26-0.36-2.9-1.68-5.82-3.03-6.77-4.79-14.63-3.2-14.35 0.45 0.08 1.96 5.73 2.17 8.12 0.04 0.57 0.73 2.39 1.52 4.03 0.79 1.65 1.39 3.3 1.32 3.66-0.22 1.27 2.36 4.18 3.35 3.79 0.55-0.22 1.97 0.7 3.17 2.02 2.37 2.64 4.27 3.41 4.55 1.82 0.2-1.12 3.69-0.21 4.67 1.22 0.36 0.51-0.24 0.62-1.31 0.24-1.06-0.36-2.03-0.23-2.11 0.32-0.18 1.05 0.14 1.21 4.75 2.3 2.6 0.61 2.71 0.77 0.83 1.22-1.8 0.44-1.63 0.62 1.09 1.15 1.79 0.35 3.16 1.12 3.05 1.72-0.21 1.28-6.35-0.93-6.64-2.39-0.1-0.51-1.16-1.1-2.35-1.29-1.6-0.27-1.85-0.08-0.96 0.73 2.08 1.89-0.58 1.96-3.49 0.08zm-6.51-1.19c-1.07-1.87 0.05-2.02 1.98-0.28 0.73 0.67 0.78 1.28 0.11 1.55-0.61 0.24-1.55-0.33-2.09-1.27zm8.77 0.01c0.64-0.73-1-2.18-7.16-6.26-0.51-0.35-0.05 0.74 1.02 2.41 1.08 1.67 2.34 2.88 2.82 2.68 0.49-0.19 1.07 0.16 1.33 0.78 0.56 1.4 1.01 1.49 1.99 0.39zm18.29 3.51c2.01-1.07 3.78-2.63 3.91-3.46q0.27-1.5 2.01-0.59c1.37 0.71 2.13 0.21 3.38-2.19 1.33-2.52 1.56-2.67 1.32-0.77-0.16 1.28-1.14 3.44-2.16 4.79-2.3 3.04-6.84 6.05-6.53 4.34 0.12-0.73-0.36-0.99-1.19-0.66-3.46 1.42-4.02 0.31-0.74-1.46zm-5.91-0.36c0.1-0.55-0.4-1.11-1.11-1.24-1.54-0.25-1.08-4.24 0.46-4.2 0.59 0.01 1.53 0.04 2.1 0.06 2.32 0.06 6.06-2.21 6.34-3.85 0.35-2.04 1.66-2.01 4.31 0.06 1.37 1.06 1.73 1.13 1.38 0.23-0.52-1.32 2.62-7.75 4.46-9.14q1.09-0.79 0.26 0.72c-0.48 0.85-1.89 4.24-3.16 7.53-1.27 3.32-2.52 5.4-2.82 4.67-0.4-1-0.74-1.06-1.45-0.27-0.51 0.59-1.47 0.73-2.14 0.34-0.66-0.4-2.37 0.04-3.78 0.97-1.94 1.26-2.72 1.34-3.13 0.3-0.4-0.99-0.82-1.1-1.44-0.39-0.49 0.55-0.5 1.06-0.02 1.13 0.46 0.09 0.75 1.06 0.64 2.19-0.11 1.12-0.39 1.99-0.63 1.95-0.25-0.04-0.37-0.53-0.27-1.06zm17.72 2.47c-0.12-1.6 0.33-3.23 1.03-3.72 0.68-0.49 1.45-2.02 1.69-3.43 0.26-1.41 1.01-3.15 1.69-3.89 2.13-2.29 0.47 4.35-1.82 7.35-1.63 2.12-1.81 2.87-0.89 3.68 0.83 0.74 0.79 1.25-0.17 1.92-0.98 0.69-1.38 0.17-1.53-1.91zm-6.23-3.07c1.69-1.62 1.67-1.67-0.17-0.68-1.09 0.59-2.07 1.54-2.17 2.12-0.11 0.58-0.02 0.89 0.17 0.68 0.2-0.21 1.17-1.16 2.17-2.12zm-0.33-8.03c-0.26-0.67-0.87-0.63-1.54 0.11-1.75 1.92-1.59 3.04 0.28 1.97 0.94-0.54 1.51-1.47 1.26-2.08zm-9.05 8.36c0.13-0.75 5.04-3.59 6-3.46 0.39 0.04 0.37 0.67-0.04 1.36-0.77 1.28-6.14 3.17-5.96 2.1zm-7.94-4.88c-0.24-0.61 0.02-1.02 0.56-0.94 0.55 0.1 1.21 0.69 1.45 1.3 0.25 0.6-0.01 1.02-0.56 0.93-0.54-0.09-1.2-0.68-1.45-1.29zm27.56 4.89c0.1-0.55 0.67-1.19 1.28-1.45 0.61-0.24 1.04 0.01 0.94 0.56-0.1 0.55-0.67 1.21-1.28 1.45-0.62 0.24-1.04 0-0.94-0.56zm-51.34-11.48c-6.37-12.68-7.74-16.41-5.86-16.09 0.5 0.08 1.41 1.99 2.02 4.23 0.6 2.23 1.31 4.33 1.56 4.65 1.47 1.84 4.78 9.3 4.29 9.65-0.31 0.21-1.21-0.88-2.01-2.44zm-6.52-0.26c0.15-0.86 0.67-1.2 1.16-0.77 0.5 0.44 0.83 1.22 0.73 1.73-0.08 0.53-0.61 0.87-1.16 0.77-0.56-0.08-0.89-0.86-0.73-1.73zm75.24 13.17c0.15-1.06 0.49-1.61 0.76-1.22 0.28 0.39 0.17 1.25-0.24 1.92-0.47 0.76-0.66 0.48-0.52-0.7zm-54.85-11.63c-0.53-0.94-1.42-1.53-1.96-1.32-0.55 0.22-0.86-0.3-0.72-1.16 0.36-2.06 0.53-1.97 3.45 1.56 1.35 1.66 1.96 2.93 1.34 2.82-0.62-0.11-1.57-0.96-2.11-1.9zm51.94 10.13c0.04-0.21 0.85-0.83 1.8-1.38 1.47-0.84 1.6-0.76 0.85 0.54-0.8 1.3-2.84 1.96-2.65 0.84zm-12.26-4.57c2.13-4.45 3.98-12.19 2.8-11.72-0.68 0.27-1.47 1.85-1.75 3.5-0.3 1.66-0.84 2.72-1.25 2.38-1.22-1.09 1.22-7.67 2.75-7.4 0.76 0.13 1.54-0.66 1.74-1.77 0.18-1.1 0.72-1.94 1.17-1.86 0.8 0.14-0.83 8.64-2.4 12.49-0.44 1.06-1 2.94-1.26 4.18-0.25 1.23-0.95 2.16-1.53 2.05-0.59-0.1-0.71-0.93-0.27-1.85zm-62.04-11.56c-0.19-0.9-0.06-1.83 0.25-2.06 0.32-0.22 0.67 0.55 0.77 1.73 0.21 2.5-0.55 2.74-1.02 0.33zm3.35 0.46c-0.31-0.43-0.48-1.25-0.38-1.82 0.11-0.63 0.57-0.49 1.16 0.35 0.55 0.77 0.72 1.58 0.38 1.83-0.33 0.23-0.86 0.07-1.16-0.36zm11.21-4.81c-1.09-2.57-1.87-5.41-1.72-6.31 0.16-0.91 0.03-2.02-0.29-2.47-0.32-0.45-0.56-1.56-0.53-2.46 0.07-2.58 1.08-0.16 2.63 6.3 0.79 3.26 2.17 6.87 3.07 8.02 1.15 1.47 1.22 2.01 0.24 1.84-0.76-0.13-2.3-2.34-3.4-4.92zm-13.47-1.09c-0.24-0.6 0.04-1.02 0.63-0.92 0.58 0.1 0.98 0.63 0.89 1.18-0.1 0.55-0.38 0.98-0.63 0.93-0.24-0.04-0.64-0.58-0.89-1.19zm78.79 13.18c0.31-1.77 0.95-1.93 1.58-0.38 0.21 0.56-0.1 1.23-0.72 1.49-0.63 0.24-1-0.26-0.86-1.11zm-81.41-15.63c-0.23-0.57 0.09-1.24 0.71-1.48 0.62-0.26 1.01 0.24 0.85 1.11-0.3 1.75-0.95 1.91-1.56 0.37zm30.78 4.01c-5.33-3.18-7.29-5.79-9.8-13.06-0.82-2.37-1.86-3.87-2.33-3.34-1.41 1.61-2.48 0.79-2.53-1.93-0.03-1.42 0.34-2.52 0.81-2.44 0.48 0.09 0.76 0.83 0.61 1.65-0.14 0.83 0.19 1.58 0.75 1.68 1.26 0.22 1.64-1.92 0.96-5.45-0.29-1.5-1.23-2.85-2.08-2.99-1.19-0.21-1.27-0.89-0.39-2.92 0.63-1.45 1.56-2.73 2.06-2.83 1.46-0.3 1.34-2.01-0.18-2.26-1.45-0.26-3.09 2.5-3.77 6.31-0.22 1.24-0.86 2.18-1.41 2.09-0.54-0.1-0.7-0.94-0.35-1.87 3.05-8.12 3.43-8.71 5.07-7.97 0.96 0.44 1.77 0.21 1.92-0.56 0.39-2.13 6.54-11.08 7.5-10.91 1.34 0.23 0.77 1.8-1.02 2.83-1.46 0.84-4.68 7.66-4 8.47 0.16 0.19-0.45 0.66-1.38 1.03-0.95 0.41-1.15 0.8-0.5 0.92 0.69 0.12 0.89 1.6 0.5 3.46-2.67 12.76 3.1 26.29 12.71 29.81 2.12 0.8 3.92 1.15 3.99 0.82 0.34-1.45 5.87-5.44 6.24-4.51 0.24 0.57-0.91 2.05-2.54 3.29-1.62 1.25-2.6 2.33-2.17 2.42 0.44 0.08 0.03 0.46-0.88 0.86-2.11 0.89-1.72 1.02-7.79-2.6zm-11.73-29.88c-0.15-0.75-0.48-0.22-0.71 1.16-0.25 1.39-0.11 1.98 0.28 1.34 0.4-0.64 0.59-1.77 0.43-2.5zm-19.63 20.17c-0.68-3.53-0.36-5.83 0.8-5.62 0.93 0.16 1.17 7.51 0.28 8.14-0.29 0.2-0.78-0.94-1.08-2.52zm49.69 9.31c-0.63-1.8 1.99-8.19 3.27-7.97 0.96 0.17 0.99 0.94 0.07 2.85-0.69 1.44-1.17 3.17-1.06 3.85 0.23 1.41-1.83 2.55-2.28 1.27zm34.02 5.35c-0.27-2-0.41-9.41-0.22-11.14 0.28-2.52-1.49-12.84-3.14-18.32-0.86-2.82-3.18-7.77-5.18-10.99-2-3.23-3.53-6.41-3.38-7.08 0.13-0.67 1.85 1.39 3.83 4.57 1.97 3.18 3.69 5.25 3.81 4.59 0.12-0.66-0.17-1.55-0.67-1.98-0.48-0.44-0.8-1.27-0.7-1.86 0.11-0.68 0.65-0.51 1.47 0.44 0.71 0.83 1.17 2.16 1.04 2.95-0.14 0.79 0.17 1.27 0.68 1.06 0.51-0.2 1.62 1.59 2.47 3.99 0.86 2.39 1.89 4.41 2.32 4.48 0.41 0.08 1.17 1.36 1.66 2.84 0.5 1.49 1.4 2.5 2.01 2.26 0.61-0.26 0.77-0.06 0.34 0.43-0.43 0.47-0.35 2.18 0.16 3.79 0.51 1.6 0.49 2.85-0.05 2.76-0.54-0.09-1.12-1.01-1.29-2.03-0.44-2.54-8.71-18.43-9.34-17.98-0.29 0.19 0.13 1.79 0.94 3.53 0.8 1.75 2.01 4.56 2.67 6.26 0.67 1.69 1.61 2.92 2.11 2.73 0.48-0.21 1.13 1.63 1.42 4.08 0.3 2.45 0.99 4.86 1.55 5.38 0.72 0.67 0.65 0.87-0.27 0.73-1.18-0.19-1.89-2.11-2.57-7.04-0.16-1.09-0.54-1.81-0.84-1.59-0.3 0.2-0.26 4.12 0.11 8.68 0.37 4.55 0.52 10 0.35 12.1-0.31 3.77-0.95 4.94-1.29 2.36zm-80.04-14.31c-0.3-0.41-0.37-1.69-0.16-2.84 0.32-1.71 0.51-1.79 1.11-0.4 0.6 1.38 0.91 1.28 1.79-0.6l1.06-2.26 0.9 2.61c1.11 3.16 1.04 4.18-0.28 3.94-0.55-0.09-0.88-0.87-0.73-1.73 0.15-0.86-0.23-1.36-0.85-1.11-0.62 0.25-0.97 0.88-0.75 1.41 0.47 1.17-1.35 2.03-2.09 0.98zm50.52 5.24c-0.27-0.67 0.09-1.6 0.77-2.08 0.88-0.62 1.08-0.26 0.7 1.24-0.59 2.42-0.79 2.53-1.47 0.84zm-43.61-7.71c-0.18-1.45-0.22-4.88-0.09-6.73 0.1-1.25-0.05-2.33-0.31-2.38-0.28-0.04-0.02-3.71 0.57-8.16 0.6-4.44 1.45-8.01 1.89-7.93 0.45 0.08 0.35 3.28-0.2 7.11-0.89 6.14-0.86 12.38 0.09 17.2 0.17 0.84-0.2 1.45-0.81 1.34-0.61-0.1-1.12-0.3-1.14-0.45zm-4.15-6.4c-0.06-1 0.47-3.35 1.16-5.22 0.71-1.89 1.16-2.43 1.03-1.24-0.13 1.18-0.2 3.61-0.15 5.4 0.09 3.38-1.85 4.39-2.04 1.06zm7.5 0.52c-0.39-1.48-0.32-2.63 0.16-2.56 0.83 0.15 1.62 4.53 0.9 5.03-0.19 0.14-0.67-0.97-1.06-2.47zm-13.53-2.17c-0.62-3.03-0.18-4.44 0.9-2.91 0.49 0.71 0.59 2.1 0.21 3.09-0.67 1.73-0.71 1.73-1.11-0.18zm3.18 1.93c-0.06-0.29-0.05-2.38 0.03-4.64 0.11-3.11 0.37-3.78 1.12-2.78 0.53 0.73 0.52 2.83-0.03 4.64-0.56 1.83-1.06 3.07-1.12 2.78zm-6.64-3.64c0.15-1.06 0.49-1.61 0.75-1.22 0.29 0.39 0.18 1.25-0.25 1.94-0.45 0.74-0.65 0.46-0.5-0.72zm35.72 5.37c-0.73-1.55-0.74-2.64-0.04-2.92 0.61-0.25 1.18-1.56 1.26-2.93 0.11-1.84 0.58-2.34 1.78-1.91 0.9 0.3 2.06 0.08 2.57-0.49q0.88-1.02-0.35-0.55c-2.01 0.82-2.18-2.7-0.25-5.18 2.25-2.89 2.95-2.66 4.1 1.37 1.43 4.96-1.52 16.18-4.13 15.73-0.55-0.08-0.67-0.53-0.27-0.99 0.81-0.9-1.33-4.44-2.81-4.7-1.51-0.26-1.43 1.83 0.11 2.74 0.76 0.47 1.34 1.25 1.25 1.73-0.29 1.65-2.03 0.61-3.22-1.9zm7.76-7.76c0.52-6.93-0.42-8.25-2.67-3.81-0.86 1.69-0.73 2.06 0.59 1.8 1.25-0.25 1.56 0.31 1.26 2.12q-0.87 4.91-3.13 1.7c-1.48-2.09-2.33-1.78-1.84 0.67 0.19 0.99 1.45 1.94 2.87 2.2 2.43 0.41 2.54 0.23 2.92-4.68zm46.22 18.68c-0.31-0.42-0.48-1.25-0.38-1.81 0.11-0.64 0.57-0.49 1.17 0.35 0.54 0.77 0.71 1.58 0.36 1.82-0.32 0.23-0.85 0.07-1.15-0.36zm-73.04-17.59c0.31-1.75 0.95-1.91 1.56-0.37 0.23 0.57-0.08 1.24-0.71 1.48-0.62 0.26-1.01-0.24-0.85-1.11zm-12.61-4.71c0.32-1.87 0.93-2.9 1.45-2.45 0.93 0.83 0.15 4.15-1.2 5.1-0.45 0.32-0.56-0.87-0.25-2.65zm15.8 4.12c0.16-0.87 0.69-1.21 1.17-0.78 0.49 0.44 0.83 1.22 0.74 1.74-0.09 0.51-0.61 0.87-1.16 0.77-0.56-0.1-0.89-0.88-0.75-1.73zm10.38 2.45c0.39-0.45 0.28-1.05-0.26-1.34-0.55-0.3-0.56-2.78-0.05-5.53 0.5-2.74 1.09-6 1.29-7.25 0.21-1.24 0.83-2.18 1.41-2.08 0.63 0.12 0.47 2.57-0.42 6.38-0.97 4.21-1.1 7.03-0.39 8.72 0.93 2.23 0.87 2.47-0.63 2.21-0.93-0.16-1.35-0.66-0.95-1.11zm3.35-0.2c-0.31-0.42-0.42-1.49-0.24-2.36 0.24-1.29 0.43-1.22 1.04 0.44 0.76 2.03 0.21 3.36-0.8 1.92zm-32.79-6.54c-0.3-0.44-0.17-1.47 0.32-2.27 0.63-1.07 0.45-1.32-0.7-0.9-1.22 0.44-1.25 0.33-0.18-0.49 2.05-1.57 3.21-0.34 2.1 2.21-0.54 1.23-1.23 1.87-1.54 1.45zm8.45 0.52c0.13-1.06 0.47-1.61 0.74-1.22 0.28 0.39 0.17 1.26-0.24 1.94-0.47 0.74-0.66 0.46-0.5-0.72zm1.73-2.11c-0.28-1.03-0.21-3.84 0.15-6.23 0.39-2.62 0.13-4.81-0.65-5.52-1.07-0.97-1-1.12 0.46-0.89q2.38 0.38 2.44-2.95c0-0.42 0.51-0.68 1.12-0.57 0.61 0.1 0.71 0.85 0.22 1.68-0.49 0.82-1.35 2.54-1.91 3.8-0.86 1.92-0.71 2.26 0.81 1.97 1.63-0.33 1.66-0.13 0.22 1.72-0.89 1.14-1.64 3.63-1.65 5.54q-0.07 5.75-1.21 1.45zm22.32 1.54c0.18-1.98 1.23-2.48 2.23-1.06 0.59 0.85-0.78 3.37-1.75 3.21-0.37-0.07-0.59-1.03-0.48-2.15zm-30.96-7.94c0.45-4.24 1.25-6.86 2.36-7.68 0.53-0.39 0.37 1.45-0.35 4.07-1.68 6.12-2.43 7.45-2.01 3.61zm5.68 1.12c-0.14-1.65 0.02-3.2 0.36-3.43 0.94-0.67 1.38 2.73 0.59 4.69-0.51 1.29-0.76 0.96-0.95-1.26zm8.98 0.91c-0.24-0.61 0.02-1.03 0.61-0.93 0.58 0.1 0.99 0.63 0.89 1.18-0.1 0.56-0.38 0.98-0.61 0.93-0.24-0.04-0.65-0.57-0.89-1.18zm-18.22-5.16c0.1-0.52 0.67-1.15 1.28-1.39 0.61-0.24 0.99 0.26 0.84 1.12-0.15 0.86-0.72 1.48-1.28 1.39-0.55-0.1-0.93-0.6-0.84-1.12zm7.38-0.91c0.3-1.69 0.89-2.76 1.32-2.38 0.72 0.65-0.61 5.67-1.46 5.52-0.21-0.04-0.15-1.45 0.14-3.14zm9.99 1.45c0.06-3.12 0.96-5.67 2.87-8.15 2.53-3.3 2.78-3.96 1.59-4.16-0.46-0.09-1.65 1-2.62 2.38-1 1.44-1.87 1.97-2 1.21-0.35-1.94 4.3-5.84 5.29-4.44 0.52 0.74 1.44 0.32 2.59-1.15 0.99-1.26 2.16-2.23 2.63-2.15 1.3 0.22 0.69 1.81-1.09 2.83-2.23 1.29-6.01 6.81-7.12 10.43-0.85 2.78-2.18 4.77-2.14 3.2zm49.63 3.29c0.71-0.45 0.39-0.6-0.83-0.39-1.47 0.27-1.77 0-1.16-1.03 0.48-0.81-0.23-2.89-1.73-5.01-3.22-4.57-4.28-4.02-1.79 0.93 1.04 2.06 2.05 4.69 2.24 5.85 0.21 1.17 0.76 1.72 1.25 1.24 0.48-0.46 1.39-1.18 2.02-1.59zm-23.98-28.98c3.54-1.85 1.2-1.59-3.63 0.41-2.42 1-4.86 1.74-5.42 1.64-0.56-0.1-1.14 0.49-1.28 1.29-0.25 1.44 3.62 0.19 10.33-3.34zm-36.51-6.36c0.2-1.31 8.2-7.25 13.54-10.03 3.75-1.95 5.34-3.72 3.58-3.97-0.42-0.05-3.86 1.9-7.65 4.35-3.79 2.45-7.02 4.26-7.19 4.02-0.58-0.82 8.56-7.41 9.95-7.17 0.77 0.13 1.21-0.23 0.99-0.79-0.23-0.57 0.54-1.16 1.72-1.32 1.17-0.17 2.19-0.71 2.29-1.23 0.09-0.51 0.76-0.82 1.49-0.7 0.74 0.13 3.77-0.55 6.71-1.51 3.11-1 4.26-1.7 2.74-1.63-5.34 0.24-12.39 2.61-17.31 5.86-2.78 1.81-5.2 3.29-5.37 3.25-0.17-0.02-0.47-0.88-0.67-1.89-0.19-1.01-0.11-1.47 0.21-1.04 0.73 1.04 4.61-0.23 4.84-1.57 0.1-0.57-0.4-0.8-1.11-0.51-0.79 0.32-0.93 0.12-0.37-0.52 0.52-0.58 1.8-0.88 2.87-0.7 1.07 0.18 2.01-0.07 2.11-0.58 0.12-0.76 9.51-2.97 16.4-3.86 1.03-0.13 1.99-1.04 2.15-2.02 0.24-1.45 0.07-1.55-0.85-0.52-0.64 0.7-2.23 1.25-3.56 1.23-1.32-0.04-5.49 0.78-9.25 1.81-3.78 1.03-6.64 1.44-6.37 0.93 0.28-0.51 0.84-0.76 1.25-0.54 0.41 0.21 1.25-0.18 1.86-0.87 1.24-1.41 10.45-3.45 13.29-2.97 1 0.19 1.62-0.17 1.37-0.75-0.23-0.6 0.86-1.18 2.44-1.29 1.82-0.14 2.93 0.23 3.05 1.01 0.1 0.67 0.65 1.3 1.21 1.4 0.57 0.1 0.9-0.5 0.73-1.32-0.19-0.92 0.58-1.58 2-1.7 3.6-0.33 4.45 0.08 2.34 1.18-1.06 0.55-2.61 2.13-3.42 3.5-1.3 2.19-1.23 2.55 0.5 2.85 1.09 0.18 2.06-0.12 2.16-0.68 0.1-0.56 1.15-0.6 2.33-0.08 1.19 0.53 4.05 0.81 6.35 0.64l4.18-0.33-5.31-0.59c-4.88-0.52-6.95-1.84-3.73-2.35 0.73-0.12 0.17-0.22-1.25-0.22-1.89-0.01-2.24-0.25-1.3-0.92 2.03-1.47 7.2-1.24 6.3 0.28-0.45 0.74-0.01 1.43 1.06 1.7q1.8 0.45 1.51-1.07c-0.16-0.84 0.22-1.45 0.84-1.34 0.64 0.11 1.28 0.91 1.47 1.79 0.17 0.89 0.81 1.4 1.42 1.16 0.68-0.28 0.65-0.88-0.1-1.56-2.01-1.85 8.29 2.27 16.56 6.63 0.25 0.13 2.13 1.36 4.17 2.74 5.8 3.93 1.92 3.34-4.54-0.69-7.43-4.63-11.22-6.01-14.56-5.3l-2.69 0.57 2.53 0.39c4.23 0.63 12.43 4.22 16.27 7.08 2 1.5 4.35 2.85 5.23 3.01 0.89 0.15 1.25 0.67 0.81 1.17-0.49 0.56-1.82 0.1-3.58-1.23-2-1.52-3.14-1.87-4.07-1.22-0.91 0.66-0.8 0.99 0.38 1.2 0.9 0.14 1.86 0.82 2.13 1.51q0.46 1.19-1.28 0.33c-8.18-4.11-17.87-7.05-26.8-8.13-8.58-1.04-9.31-1.27-7.34-2.31 2.08-1.1 2.05-1.16-0.61-1.16-1.55 0-2.51-0.34-2.13-0.76 0.36-0.42-0.26-0.93-1.39-1.13-1.14-0.19-2.15 0.13-2.24 0.71-0.11 0.59 0.32 0.85 0.95 0.6 0.62-0.24 0.91 0.12 0.63 0.83-0.28 0.7 0.11 1.25 0.87 1.23 0.75-0.03 1.01 0.36 0.56 0.88-0.44 0.5-1.47 0.8-2.26 0.65-0.79-0.13-1.52 0.24-1.63 0.82-0.1 0.59-0.59 0.71-1.09 0.26-0.5-0.44-2.24-0.08-3.89 0.81-1.64 0.89-3.55 1.53-4.24 1.41-0.68-0.13-1.92 0.36-2.75 1.07-2.2 1.88-0.38 1.78 4.69-0.25 5.04-2.02 6.9-2.09 4.68-0.19-0.83 0.71-1.17 1.34-0.75 1.41 0.4 0.08 0.06 0.71-0.77 1.42-0.83 0.7-1.99 1.2-2.59 1.11-0.58-0.11-0.07-0.7 1.14-1.33 2.17-1.12 2.18-1.14 0.27-1.5-1.06-0.21-3.19 0.45-4.7 1.45-2.31 1.52-2.86 1.56-3.41 0.21-0.71-1.77-2.18-1.02-12.02 6.19-2.83 2.06-5.07 3.28-4.98 2.69zm16.73 30.33c0.92-1.55 2.01-2.76 2.44-2.68 1.05 0.18 0.91 0.62-0.98 3.4-2.25 3.29-3.47 2.69-1.46-0.72zm-21.46-5.27c0.46-0.77 1.52-1.29 2.35-1.14 1.24 0.22 1.24 0.51 0.01 1.56-0.83 0.7-1.89 1.22-2.35 1.13-0.46-0.07-0.48-0.78-0.01-1.55zm8.43-1.08c1.21-3.29 3.44-6.67 4.94-7.45 0.4-0.21 0.89-0.83 1.08-1.37 0.19-0.52 1.81-2.8 3.59-5.05 2.39-2.99 5.42-5.01 11.37-7.58 4.47-1.93 8.78-3.38 9.57-3.24 1.36 0.25-1.59 1.61-6.26 2.88-1.18 0.32-4.53 2.05-7.42 3.83-4.83 2.97-7.18 5.68-16.49 19.04-1.5 2.13-1.52 2.06-0.38-1.06zm1.57 2.36c-0.23-0.56 0.1-1.23 0.71-1.47 0.62-0.26 1.01 0.24 0.87 1.11-0.31 1.75-0.95 1.91-1.58 0.36zm61.33 9.89c-0.47-2.34 0.83-3.16 1.69-1.09 0.85 2.09 0.7 3.2-0.45 2.99-0.49-0.09-1.05-0.94-1.24-1.9zm-66.58-12.61c0.09-0.51 0.98-1.69 1.98-2.62 1.51-1.42 1.76-1.42 1.54-0.06-0.13 0.9-1.02 2.09-1.96 2.64-0.95 0.53-1.64 0.56-1.56 0.04zm-2.83-1.58c0.1-0.56 0.95-1.45 1.9-2 0.96-0.55 1.65-0.54 1.55 0.01-0.09 0.56-0.95 1.45-1.9 2-0.95 0.55-1.64 0.54-1.55-0.01zm63.62 0.35c0.25 0.05 0.29-0.36 0.07-0.92-0.23-0.55-1.3-0.93-2.39-0.83-1.08 0.08-2.19-0.38-2.46-1.05-0.27-0.66-1.02-1.28-1.68-1.39-0.66-0.1-0.22 0.9 0.97 2.22 1.18 1.31 2.81 2.28 3.59 2.14 0.78-0.13 1.63-0.22 1.9-0.17zm-32.27-31.57c1.43-1.82 5.51-3.03 6.74-2 0.41 0.36 1.15-0.26 1.65-1.37 0.51-1.11 0.99-2.03 1.06-2.05 0.08-0.01 2.73 0.17 5.89 0.43 3.69 0.28 5.93 0.89 6.25 1.68 0.34 0.84-0.38 0.91-2.26 0.22-3.8-1.4-9.42-1.2-9.69 0.35-0.26 1.56-3.03 2.39-7.31 2.18-0.69-0.02-1.12 0.59-0.97 1.37 0.15 0.8-0.38 1.31-1.21 1.17-1.16-0.2-1.18-0.65-0.15-1.98zm59.22 43.44c-0.78-1.21-1.2-2.18-0.92-2.13 0.28 0.05-1.05-1.9-2.95-4.33-1.9-2.41-5.03-6.47-6.96-8.99-1.94-2.54-6.14-6.89-9.35-9.68-6.14-5.35-6.21-6.65-0.11-1.97 6.54 4.99 7.66 6.08 6.88 6.64-0.43 0.29-0.34 0.62 0.18 0.71 0.54 0.09 1.5-0.2 2.15-0.65 0.76-0.55 2.78 0.89 5.92 4.22 2.62 2.78 4.85 5.48 4.95 6.02 0.1 0.52 0.63 0.78 1.19 0.56 0.55-0.23 0.84 0.6 0.63 1.83l-0.39 2.24-2.28-2.9c-1.25-1.6-3.78-4.89-5.61-7.3-1.84-2.43-3.76-4.24-4.28-4.04-0.79 0.32 4.44 8.41 5.57 8.61 0.22 0.04 1.73 2.13 3.35 4.66 1.64 2.53 3.26 4.48 3.61 4.34 0.35-0.15 0.53 0.84 0.38 2.18-0.15 1.34-0.33 2.39-0.4 2.33-0.08-0.07-0.77-1.11-1.56-2.35zm-45.29-23.24c0.1-0.55 0.63-0.93 1.19-0.83 0.55 0.1 0.91 0.62 0.83 1.17-0.1 0.56-0.64 0.93-1.19 0.83-0.54-0.1-0.92-0.62-0.83-1.17zm42.15 6.4c-1.14-1.26-4.84-4.91-8.22-8.13-3.38-3.22-5.5-5.73-4.71-5.58 0.78 0.16 4.01 2.76 7.17 5.8 3.16 3.05 6.19 5.34 6.75 5.12 0.57-0.23 0.37-1.1-0.44-1.94-1.29-1.34-1.28-1.56 0.16-1.85 0.9-0.17 1.57 0.23 1.5 0.91-0.19 1.83-0.05 4.12 0.4 6.24 0.51 2.39-0.03 2.27-2.61-0.57zm-34.51-19.2c-0.64-0.4-1.77-0.59-2.5-0.44-0.75 0.16-0.22 0.49 1.15 0.73 1.39 0.24 1.99 0.11 1.35-0.29zm-18.82-15.68c-1.67-0.89-13.7 2.75-12.89 3.9 0.25 0.35 3.46-0.26 7.16-1.37 3.68-1.11 6.25-2.24 5.73-2.53zm38.76 6.42c0.07-0.48-1.26-1.46-2.99-2.2-1.72-0.71-3.77-1.6-4.56-1.95-2.99-1.29-19.16-3.6-20.91-2.98-1.24 0.44 0.75 1.07 6.16 1.96 9.68 1.61 19.08 4.39 19.65 5.81 0.48 1.17 2.41 0.7 2.65-0.64zm3.96 22.04c-5.02-4.36-7.94-7.26-7.15-7.12 1.54 0.27 10.68 7.41 10.54 8.24-0.19 1.07-1.27 0.7-3.39-1.12zm-41.43-8.4c0.83-0.71 1.95-1.22 2.51-1.12 0.56 0.09 0.33 0.74-0.51 1.46-0.83 0.71-1.97 1.21-2.51 1.12-0.57-0.1-0.33-0.74 0.51-1.46zm13.61 1.84l-3.87-1.42 4.27 0.6c2.37 0.32 4.21 1.04 4.12 1.6-0.09 0.55-0.28 0.91-0.4 0.82-0.12-0.11-1.97-0.83-4.12-1.6zm-4.09-3.17c0.03-0.22 1.23-0.41 2.65-0.44 1.43-0.02 2.53 0.34 2.44 0.82-0.08 0.47-1.28 0.67-2.66 0.44-1.37-0.25-2.47-0.61-2.43-0.82zm25.25 0.68c-1-0.57-1.33-1.24-0.73-1.48 1.15-0.46 4.04 1.57 3.1 2.16-0.31 0.2-1.37-0.12-2.37-0.68zm-25.94-8.66c1.31-0.55 1.06-0.82-1.08-1.21-1.51-0.27-2.83-0.04-2.93 0.51-0.22 1.27 1.83 1.62 4.01 0.7zm37.34 0.67c0.39-0.28 1.27-0.17 1.94 0.25 0.74 0.45 0.46 0.65-0.71 0.5-1.07-0.14-1.62-0.49-1.23-0.75zm-60.8-20.23c0.92-0.39 2.34-0.59 3.17-0.45 1.34 0.24 1.32 0.33-0.16 0.97-0.92 0.39-2.35 0.59-3.18 0.45-1.34-0.23-1.32-0.33 0.17-0.97zm52.39 7.51c-1.23-1.02-3.49-2.09-5.01-2.37-1.51-0.28-2.66-1.02-2.55-1.64 0.11-0.66-0.89-1.09-2.42-1.07-1.44 0.02-2.76-0.3-2.93-0.72-0.17-0.43-3.39-1.19-7.17-1.71-3.97-0.53-5.96-1.09-4.74-1.35 1.17-0.23 6.82 0.33 12.54 1.25 8.7 1.38 10.21 1.86 9.06 2.84-1.1 0.93-0.65 1.45 2.28 2.6 2.01 0.8 3.96 1.43 4.33 1.42 0.37-0.01 0.83 0.68 1 1.55 0.39 1.97-1.44 1.64-4.39-0.8zm-47.14-8.07c0.07-0.34 1.35-0.86 2.86-1.15 1.65-0.33 2.53-1.04 2.21-1.82-0.28-0.71-0.14-0.95 0.32-0.55 1.27 1.12 12.96 0.2 14.13-1.12 0.79-0.9 1.25-0.84 2.01 0.24 1.11 1.56 0.68 1.7-11.01 3.33-3.79 0.54-7.72 1.14-8.75 1.34-1.03 0.2-1.83 0.09-1.77-0.27zm22.66-4.02c0.19-1.88 0.59-1.98 3.31-0.96 7.89 3 13.09 3.67 12.25 1.6-0.22-0.55-0.16-0.95 0.13-0.91 0.28 0.05 0.84 1.04 1.22 2.21 0.66 1.99 0.3 2.05-6.38 0.91-3.9-0.67-7.91-1.09-8.91-0.96-1.3 0.18-1.76-0.35-1.62-1.89zm-11.73-2.4c4.52-0.6 7.58-0.08 6.53 1.09-0.35 0.39-2.93 0.43-5.71 0.09l-5.05-0.62z"/>
		<path id="Shape 1 copy 2" fill-rule="evenodd" class="s2" d="m86.81 71.95q1.21-0.72 2.38-1.37c-1.49 0.07-2.38 0.15-2.38 0.15 47.02-27.68 51.68 9.1 79.54 1.16-1.78 0.59-4.17 1.36-6.91 2.2 2.13-0.13 4.4-0.52 6.85-1.26-10.36 3.52-44.42 14.4-47.01 6.26-3.06-9.62-32.47-7.14-32.47-7.14zm79.48 0.88c1.87-0.63 2.97-1.03 2.97-1.03q-1.53 0.6-2.97 1.03zm0.06-0.94c2.16-0.72 3.45-1.18 3.45-1.18q-1.78 0.7-3.45 1.18z"/>
		<path id="Shape 14" fill-rule="evenodd" class="s2" d="m88.33 69.82l-2.74 1.61z"/>
		<path id="Shape 15" fill-rule="evenodd" class="s2" d="m87.52 71.32l-1.62 0.58z"/>
		<path id="Shape 17 copy 2" fill-rule="evenodd" class="s3" d="m89 71.25c46.37-27.29 50.78 11.65 80.18 0.13 0 0-46.49 15.77-49.4 6.65-2.9-9.12-30.78-6.78-30.78-6.78zm-0.69-0.05l-0.79 2.05zm79.5 0.73l3.08-1.28zm0.13 0.37l3.27-1.19zm-0.97-0.61l3.76-1.3z"/>
		<path id="Shape 10" fill-rule="evenodd" class="s4" d=""/>
		<path id="Shape 4" fill-rule="evenodd" class="s5" d="m125.31 78.56c-4.38 0-7.92-3.54-7.92-7.92 0-4.38 3.54-7.92 7.92-7.92 4.38 0 7.92 3.54 7.92 7.92 0 4.38-3.54 7.92-7.92 7.92zm5.49-10.97c0-1.35-1.09-2.43-2.44-2.43-1.35 0-2.44 1.08-2.44 2.43 0 1.36 1.09 2.44 2.44 2.44q0.02 0 0.05 0c0.13 0.36 0.46 0.61 0.86 0.61 0.5 0 0.92-0.41 0.92-0.91q0-0.23-0.1-0.42c0.44-0.44 0.71-1.05 0.71-1.72z"/>
		<path id="Shape 12" fill-rule="evenodd" class="s1" d=""/>
		<path id="Shape 13" fill-rule="evenodd" class="s2" d=""/>
	</g>
</svg>